<?xml version="1.0" encoding="utf-8"?>
<!-- Generator: Adobe Illustrator 18.0.0, SVG Export Plug-In . SVG Version: 6.00 Build 0)  -->
<!DOCTYPE svg PUBLIC "-//W3C//DTD SVG 1.1//EN" "http://www.w3.org/Graphics/SVG/1.1/DTD/svg11.dtd">
<svg version="1.1" id="Layer_1" xmlns="http://www.w3.org/2000/svg" xmlns:xlink="http://www.w3.org/1999/xlink" x="0px" y="0px"
	 viewBox="0 0 320 137.3" enable-background="new 0 0 320 137.3" xml:space="preserve">
<path fill="none" stroke="#9F3092" stroke-width="3" stroke-miterlimit="10" stroke-dasharray="12,6,9,6,12,6" d="M92,120.3
	c1.4-1.4,240.7,0,240.7,0"/>
<linearGradient id="SVGID_1_" gradientUnits="userSpaceOnUse" x1="-597.3089" y1="954.7255" x2="-315.7732" y2="954.7255" gradientTransform="matrix(1 0 0 1 634.4517 -892.5337)">
	<stop  offset="0" style="stop-color:#30C3E5"/>
	<stop  offset="1" style="stop-color:#19447A"/>
</linearGradient>
<path fill="url(#SVGID_1_)" d="M298.8,110.7H57.1c-11,0-19.9-8.9-19.9-19.9V33.6c0-11,8.9-19.9,19.9-19.9h241.7
	c11,0,19.9,8.9,19.9,19.9v57.1C318.7,101.7,309.8,110.7,298.8,110.7z"/>
<g>
	<path fill="#FFFFFF" d="M145.9,31.4h-6.7v3.8h5.8v1.5h-5.8v5.6h-1.6V30h8.3V31.4z"/>
	<path fill="#FFFFFF" d="M151.4,33.5c0.6,0,1.1,0.1,1.7,0.3c0.5,0.2,0.9,0.5,1.3,0.9c0.4,0.4,0.6,0.9,0.8,1.4
		c0.2,0.5,0.3,1.2,0.3,1.8s-0.1,1.3-0.3,1.8c-0.2,0.5-0.5,1-0.8,1.4c-0.4,0.4-0.8,0.7-1.3,0.9c-0.5,0.2-1.1,0.3-1.7,0.3
		c-0.6,0-1.2-0.1-1.7-0.3c-0.5-0.2-0.9-0.5-1.3-0.9c-0.4-0.4-0.7-0.9-0.9-1.4c-0.2-0.5-0.3-1.2-0.3-1.8s0.1-1.3,0.3-1.8
		c0.2-0.5,0.5-1,0.9-1.4c0.4-0.4,0.8-0.7,1.3-0.9C150.3,33.6,150.8,33.5,151.4,33.5z M151.4,41.4c0.4,0,0.8-0.1,1.2-0.2
		c0.4-0.2,0.7-0.4,0.9-0.7s0.5-0.7,0.6-1.1c0.1-0.4,0.2-0.9,0.2-1.5c0-0.5-0.1-1-0.2-1.5s-0.3-0.8-0.6-1.1c-0.3-0.3-0.6-0.5-0.9-0.7
		s-0.7-0.2-1.2-0.2c-0.4,0-0.8,0.1-1.2,0.2s-0.7,0.4-0.9,0.7s-0.5,0.7-0.6,1.1c-0.1,0.4-0.2,0.9-0.2,1.5c0,0.5,0.1,1,0.2,1.5
		c0.1,0.4,0.3,0.8,0.6,1.1s0.6,0.5,0.9,0.7C150.6,41.3,151,41.4,151.4,41.4z"/>
	<path fill="#FFFFFF" d="M164.2,42.2H163l-0.8-2.3c-0.1-0.2-0.2-0.4-0.3-0.6c-0.1-0.2-0.3-0.3-0.4-0.4c-0.2-0.1-0.3-0.2-0.5-0.3
		s-0.4-0.1-0.6-0.1h-2.1v3.7h-1.1v-8.6h3.8c0.3,0,0.6,0,0.9,0c0.3,0,0.5,0.1,0.7,0.1c0.2,0.1,0.4,0.2,0.6,0.3s0.3,0.3,0.5,0.5
		s0.2,0.4,0.3,0.7c0.1,0.2,0.1,0.5,0.1,0.7c0,0.3,0,0.6-0.1,0.8c-0.1,0.3-0.2,0.5-0.4,0.7s-0.4,0.4-0.6,0.5s-0.5,0.2-0.8,0.3
		c0.6,0.2,1.1,0.7,1.4,1.6L164.2,42.2z M158.2,37.5h2.5c0.4,0,0.7,0,0.9-0.1c0.3-0.1,0.5-0.1,0.6-0.3c0.2-0.1,0.3-0.3,0.4-0.5
		s0.1-0.4,0.1-0.7c0-1-0.6-1.5-1.8-1.5h-2.7V37.5z"/>
	<path fill="#FFFFFF" d="M179.7,42.2h-1.3l-1-2.6h-3.6l-1,2.6h-1.2l3.3-8.6h1.2L179.7,42.2z M177.1,38.7l-1.5-4l-1.4,4H177.1z"/>
	<path fill="#FFFFFF" d="M183.9,42.4c-0.6,0-1.1-0.1-1.6-0.2s-0.8-0.3-1.1-0.6c-0.3-0.3-0.5-0.6-0.7-0.9c-0.2-0.4-0.2-0.7-0.3-1.2
		h1.1c0,0.3,0.1,0.6,0.3,0.8c0.1,0.2,0.3,0.4,0.5,0.6c0.2,0.2,0.5,0.3,0.8,0.3s0.6,0.1,0.9,0.1c0.3,0,0.6,0,0.9-0.1
		c0.3-0.1,0.5-0.2,0.7-0.3s0.3-0.3,0.4-0.5c0.1-0.2,0.2-0.4,0.2-0.6c0-0.2,0-0.4-0.1-0.6s-0.2-0.3-0.5-0.4c-0.2-0.1-0.5-0.2-0.8-0.3
		s-0.8-0.2-1.3-0.3c-0.5-0.1-0.9-0.2-1.3-0.4s-0.6-0.3-0.8-0.5c-0.4-0.4-0.6-0.9-0.6-1.5c0-0.4,0.1-0.7,0.2-1
		c0.1-0.3,0.4-0.5,0.6-0.8c0.3-0.2,0.6-0.4,1-0.5c0.4-0.1,0.8-0.2,1.2-0.2c0.5,0,0.9,0.1,1.3,0.2s0.7,0.3,1,0.5
		c0.3,0.2,0.5,0.5,0.7,0.8c0.2,0.3,0.3,0.7,0.3,1.1h-1.1c-0.1-1-0.8-1.6-2.1-1.6c-0.6,0-1.1,0.1-1.5,0.4c-0.3,0.2-0.5,0.6-0.5,1
		c0,0.2,0,0.3,0.1,0.5c0.1,0.1,0.2,0.2,0.3,0.3c0.2,0.1,0.4,0.2,0.6,0.3s0.6,0.2,1,0.2c0.8,0.2,1.4,0.3,1.8,0.5
		c0.2,0.1,0.4,0.2,0.6,0.3c0.2,0.1,0.4,0.3,0.5,0.5s0.3,0.4,0.4,0.6c0.1,0.2,0.1,0.5,0.1,0.8c0,0.4-0.1,0.7-0.2,1
		c-0.2,0.3-0.4,0.6-0.7,0.8s-0.6,0.4-1,0.5C184.8,42.3,184.3,42.4,183.9,42.4z"/>
	<path fill="#FFFFFF" d="M191.9,42.4c-0.6,0-1.1-0.1-1.6-0.2s-0.8-0.3-1.1-0.6c-0.3-0.3-0.5-0.6-0.7-0.9c-0.2-0.4-0.2-0.7-0.3-1.2
		h1.1c0,0.3,0.1,0.6,0.3,0.8c0.1,0.2,0.3,0.4,0.5,0.6c0.2,0.2,0.5,0.3,0.8,0.3s0.6,0.1,0.9,0.1c0.3,0,0.6,0,0.9-0.1
		c0.3-0.1,0.5-0.2,0.7-0.3s0.3-0.3,0.4-0.5c0.1-0.2,0.2-0.4,0.2-0.6c0-0.2,0-0.4-0.1-0.6s-0.2-0.3-0.5-0.4c-0.2-0.1-0.5-0.2-0.8-0.3
		s-0.8-0.2-1.3-0.3c-0.5-0.1-0.9-0.2-1.3-0.4s-0.6-0.3-0.8-0.5c-0.4-0.4-0.6-0.9-0.6-1.5c0-0.4,0.1-0.7,0.2-1
		c0.1-0.3,0.4-0.5,0.6-0.8c0.3-0.2,0.6-0.4,1-0.5c0.4-0.1,0.8-0.2,1.2-0.2c0.5,0,0.9,0.1,1.3,0.2s0.7,0.3,1,0.5
		c0.3,0.2,0.5,0.5,0.7,0.8c0.2,0.3,0.3,0.7,0.3,1.1h-1.1c-0.1-1-0.8-1.6-2.1-1.6c-0.6,0-1.1,0.1-1.5,0.4c-0.3,0.2-0.5,0.6-0.5,1
		c0,0.2,0,0.3,0.1,0.5c0.1,0.1,0.2,0.2,0.3,0.3c0.2,0.1,0.4,0.2,0.6,0.3s0.6,0.2,1,0.2c0.8,0.2,1.4,0.3,1.8,0.5
		c0.2,0.1,0.4,0.2,0.6,0.3c0.2,0.1,0.4,0.3,0.5,0.5s0.3,0.4,0.4,0.6c0.1,0.2,0.1,0.5,0.1,0.8c0,0.4-0.1,0.7-0.2,1
		c-0.2,0.3-0.4,0.6-0.7,0.8s-0.6,0.4-1,0.5C192.8,42.3,192.4,42.4,191.9,42.4z"/>
	<path fill="#FFFFFF" d="M197.9,42.2h-1.1v-8.6h1.1V42.2z"/>
	<path fill="#FFFFFF" d="M203.2,42.4c-0.6,0-1.1-0.1-1.6-0.2s-0.8-0.3-1.1-0.6c-0.3-0.3-0.5-0.6-0.7-0.9c-0.2-0.4-0.2-0.7-0.3-1.2
		h1.1c0,0.3,0.1,0.6,0.3,0.8c0.1,0.2,0.3,0.4,0.5,0.6c0.2,0.2,0.5,0.3,0.8,0.3s0.6,0.1,0.9,0.1c0.3,0,0.6,0,0.9-0.1
		c0.3-0.1,0.5-0.2,0.7-0.3s0.3-0.3,0.4-0.5c0.1-0.2,0.2-0.4,0.2-0.6c0-0.2,0-0.4-0.1-0.6s-0.2-0.3-0.5-0.4c-0.2-0.1-0.5-0.2-0.8-0.3
		s-0.8-0.2-1.3-0.3c-0.5-0.1-0.9-0.2-1.3-0.4s-0.6-0.3-0.8-0.5c-0.4-0.4-0.6-0.9-0.6-1.5c0-0.4,0.1-0.7,0.2-1
		c0.1-0.3,0.4-0.5,0.6-0.8c0.3-0.2,0.6-0.4,1-0.5c0.4-0.1,0.8-0.2,1.2-0.2c0.5,0,0.9,0.1,1.3,0.2s0.7,0.3,1,0.5
		c0.3,0.2,0.5,0.5,0.7,0.8c0.2,0.3,0.3,0.7,0.3,1.1h-1.1c-0.1-1-0.8-1.6-2.1-1.6c-0.6,0-1.1,0.1-1.5,0.4c-0.3,0.2-0.5,0.6-0.5,1
		c0,0.2,0,0.3,0.1,0.5c0.1,0.1,0.2,0.2,0.3,0.3c0.2,0.1,0.4,0.2,0.6,0.3s0.6,0.2,1,0.2c0.8,0.2,1.4,0.3,1.8,0.5
		c0.2,0.1,0.4,0.2,0.6,0.3c0.2,0.1,0.4,0.3,0.5,0.5s0.3,0.4,0.4,0.6c0.1,0.2,0.1,0.5,0.1,0.8c0,0.4-0.1,0.7-0.2,1
		c-0.2,0.3-0.4,0.6-0.7,0.8s-0.6,0.4-1,0.5C204.1,42.3,203.7,42.4,203.2,42.4z"/>
	<path fill="#FFFFFF" d="M214.1,34.7h-2.8v7.6h-1.1v-7.6h-2.8v-1h6.8V34.7z"/>
	<path fill="#FFFFFF" d="M222.4,42.2h-1.3l-1-2.6h-3.6l-1,2.6h-1.2l3.3-8.6h1.2L222.4,42.2z M219.8,38.7l-1.5-4l-1.4,4H219.8z"/>
	<path fill="#FFFFFF" d="M230.1,42.2h-1.2l-4.5-6.8v6.8h-1.1v-8.6h1.2l4.5,6.8v-6.8h1.1V42.2z"/>
	<path fill="#FFFFFF" d="M235.6,42.4c-0.6,0-1.2-0.1-1.7-0.3c-0.5-0.2-0.9-0.5-1.3-0.9c-0.3-0.4-0.6-0.9-0.8-1.4
		c-0.2-0.5-0.3-1.2-0.3-1.8s0.1-1.3,0.3-1.8c0.2-0.5,0.5-1,0.8-1.4c0.3-0.4,0.8-0.7,1.3-0.9c0.5-0.2,1-0.3,1.6-0.3
		c0.5,0,0.9,0.1,1.3,0.2s0.8,0.3,1.1,0.6c0.3,0.2,0.6,0.5,0.8,0.9c0.2,0.3,0.3,0.7,0.4,1.1h-1.2c0-0.3-0.1-0.5-0.2-0.7
		c-0.1-0.2-0.3-0.4-0.5-0.6s-0.4-0.3-0.7-0.4s-0.6-0.1-0.9-0.1c-0.4,0-0.8,0.1-1.2,0.2s-0.6,0.4-0.9,0.7c-0.2,0.3-0.4,0.7-0.6,1.1
		s-0.2,0.9-0.2,1.5s0.1,1,0.2,1.5c0.1,0.4,0.3,0.8,0.6,1.1s0.5,0.5,0.9,0.7c0.3,0.2,0.7,0.2,1.2,0.2c0.7,0,1.2-0.2,1.6-0.5
		c0.4-0.3,0.7-0.8,0.7-1.4h1.2c0,0.5-0.2,0.9-0.3,1.2s-0.4,0.7-0.7,0.9c-0.3,0.2-0.7,0.4-1.1,0.6C236.5,42.3,236.1,42.4,235.6,42.4z
		"/>
	<path fill="#FFFFFF" d="M247.1,42.2h-6.4v-8.6h6.2v1h-5.1v2.6h4.7v1h-4.7v2.9h5.3V42.2z"/>
	<path fill="#FFFFFF" d="M259,42.4c-1,0-1.7-0.2-2.2-0.6c-0.5-0.4-0.8-0.8-0.9-1.4c-0.1-0.3-0.1-0.5-0.2-0.9c0-0.3,0-0.6,0-1v-5h1.1
		v5c0,1.1,0.2,1.9,0.6,2.2c0.4,0.4,0.9,0.5,1.7,0.5c0.7,0,1.3-0.2,1.7-0.5c0.4-0.4,0.6-1.1,0.6-2.2v-5h1.1v5c0,1-0.1,1.8-0.4,2.3
		C261.5,41.9,260.5,42.4,259,42.4z"/>
	<path fill="#FFFFFF" d="M267.5,42.4c-0.6,0-1.1-0.1-1.6-0.2s-0.8-0.3-1.1-0.6c-0.3-0.3-0.5-0.6-0.7-0.9c-0.2-0.4-0.2-0.7-0.3-1.2
		h1.1c0,0.3,0.1,0.6,0.3,0.8s0.3,0.4,0.5,0.6c0.2,0.2,0.5,0.3,0.8,0.3c0.3,0.1,0.6,0.1,0.9,0.1c0.3,0,0.6,0,0.9-0.1
		c0.3-0.1,0.5-0.2,0.7-0.3s0.3-0.3,0.4-0.5c0.1-0.2,0.2-0.4,0.2-0.6c0-0.2,0-0.4-0.1-0.6s-0.2-0.3-0.5-0.4s-0.5-0.2-0.8-0.3
		s-0.8-0.2-1.3-0.3c-0.5-0.1-0.9-0.2-1.3-0.4s-0.6-0.3-0.8-0.5c-0.4-0.4-0.6-0.9-0.6-1.5c0-0.4,0.1-0.7,0.2-1
		c0.1-0.3,0.4-0.5,0.6-0.8c0.3-0.2,0.6-0.4,1-0.5c0.4-0.1,0.8-0.2,1.2-0.2c0.5,0,0.9,0.1,1.3,0.2c0.4,0.1,0.7,0.3,1,0.5
		c0.3,0.2,0.5,0.5,0.7,0.8c0.2,0.3,0.3,0.7,0.3,1.1h-1.1c-0.1-1-0.8-1.6-2.1-1.6c-0.6,0-1.1,0.1-1.5,0.4c-0.3,0.2-0.5,0.6-0.5,1
		c0,0.2,0,0.3,0.1,0.5c0.1,0.1,0.2,0.2,0.3,0.3c0.2,0.1,0.4,0.2,0.6,0.3s0.6,0.2,1,0.2c0.8,0.2,1.4,0.3,1.8,0.5
		c0.2,0.1,0.4,0.2,0.6,0.3s0.4,0.3,0.5,0.5s0.3,0.4,0.4,0.6c0.1,0.2,0.1,0.5,0.1,0.8c0,0.4-0.1,0.7-0.2,1s-0.4,0.6-0.7,0.8
		c-0.3,0.2-0.6,0.4-1,0.5C268.4,42.3,268,42.4,267.5,42.4z"/>
	<path fill="#FFFFFF" d="M273.6,42.2h-1.1v-8.6h1.1V42.2z"/>
	<path fill="#FFFFFF" d="M282.4,42.2h-1.2l-4.5-6.8v6.8h-1.1v-8.6h1.2l4.5,6.8v-6.8h1.1V42.2z"/>
	<path fill="#FFFFFF" d="M288,42.4c-0.6,0-1.2-0.1-1.7-0.3c-0.5-0.2-0.9-0.5-1.3-0.9c-0.4-0.4-0.6-0.9-0.8-1.4
		c-0.2-0.5-0.3-1.2-0.3-1.8s0.1-1.3,0.3-1.8c0.2-0.5,0.5-1,0.8-1.4c0.4-0.4,0.8-0.7,1.3-0.9c0.5-0.2,1.1-0.3,1.7-0.3
		c0.5,0,1,0.1,1.4,0.2c0.4,0.1,0.8,0.3,1.2,0.6c0.3,0.2,0.6,0.5,0.8,0.9c0.2,0.3,0.3,0.7,0.4,1.1h-1.2c0-0.3-0.1-0.5-0.2-0.7
		s-0.3-0.4-0.5-0.6c-0.2-0.2-0.5-0.3-0.8-0.3c-0.3-0.1-0.6-0.1-1-0.1c-0.4,0-0.8,0.1-1.2,0.2s-0.7,0.4-0.9,0.7s-0.5,0.7-0.6,1.1
		s-0.2,0.9-0.2,1.5c0,0.5,0.1,1,0.2,1.5c0.1,0.4,0.3,0.8,0.6,1.1s0.6,0.5,0.9,0.7c0.4,0.2,0.8,0.2,1.2,0.2c1.2,0,2.2-0.4,2.8-1.2
		v-1.3h-2.3v-1h3.4v4.4h-0.8l-0.3-0.9C290.2,42,289.3,42.4,288,42.4z"/>
	<path fill="#FFFFFF" d="M165.7,58.1h-6v3.1h5.2v2.2h-5.2v4.8h-2.6V56h8.6V58.1z"/>
	<path fill="#FFFFFF" d="M169.2,68.2h-1.8v-8.6h1.8V68.2z"/>
	<path fill="#FFFFFF" d="M178.1,68.2h-1.9l-3.5-6v6H171v-8.6h1.8l3.5,6v-6h1.7V68.2z"/>
	<path fill="#FFFFFF" d="M179.8,59.6h2.9c1.5,0,2.6,0.3,3.4,1c0.8,0.7,1.1,1.8,1.1,3.2c0,1.4-0.4,2.5-1.1,3.3
		c-0.8,0.7-1.9,1.1-3.4,1.1h-2.9V59.6z M181.7,66.7h1c1,0,1.7-0.2,2.1-0.7c0.2-0.3,0.3-0.5,0.4-0.9c0.1-0.3,0.1-0.7,0.1-1.2
		c0-0.4,0-0.8-0.1-1.2c-0.1-0.3-0.2-0.6-0.4-0.9c-0.4-0.5-1.1-0.7-2.1-0.7h-1V66.7z"/>
	<path fill="#FFFFFF" d="M202,68.2h-2.4v-9.7l-2.9,9.7h-2.4l-3-9.7v9.7H189V56h3.8l2.8,9.3l2.8-9.3h3.7V68.2z"/>
	<path fill="#FFFFFF" d="M211.3,59.6l-3.1,5.1v3.5h-1.8v-3.5l-3.1-5.1h2l2,3.7l2-3.7H211.3z"/>
	<path fill="#FFFFFF" d="M223.2,68.2h-2.8l-1.1-3c-0.2-0.6-0.5-1-0.8-1.3c-0.4-0.3-0.8-0.4-1.3-0.4h-2v4.7h-2.6V56h5.5
		c0.5,0,0.9,0,1.3,0.1s0.8,0.1,1.1,0.2c0.3,0.1,0.6,0.2,0.9,0.4c0.3,0.2,0.5,0.4,0.7,0.7c0.2,0.3,0.4,0.6,0.5,1s0.2,0.7,0.2,1.2
		c0,0.9-0.2,1.6-0.7,2.1c-0.5,0.5-1.1,0.9-1.9,1.1c0.2,0.1,0.5,0.2,0.7,0.4c0.2,0.1,0.4,0.3,0.5,0.5s0.3,0.4,0.4,0.7
		c0.1,0.3,0.3,0.6,0.4,0.9L223.2,68.2z M215.2,61.4h2.6c0.8,0,1.3-0.1,1.7-0.4c0.3-0.3,0.5-0.7,0.5-1.4c0-1.1-0.7-1.7-2-1.7h-2.8
		V61.4z"/>
	<path fill="#FFFFFF" d="M226.4,68.2h-1.8v-8.6h1.8V68.2z"/>
	<path fill="#FFFFFF" d="M228.2,59.6h2.9c1.5,0,2.6,0.3,3.4,1c0.8,0.7,1.1,1.8,1.1,3.2c0,1.4-0.4,2.5-1.1,3.3
		c-0.8,0.7-1.9,1.1-3.4,1.1h-2.9V59.6z M230,66.7h1c1,0,1.7-0.2,2.1-0.7c0.2-0.3,0.3-0.5,0.4-0.9c0.1-0.3,0.1-0.7,0.1-1.2
		c0-0.4,0-0.8-0.1-1.2c-0.1-0.3-0.2-0.6-0.4-0.9c-0.4-0.5-1.1-0.7-2.1-0.7h-1V66.7z"/>
	<path fill="#FFFFFF" d="M243.6,68.2H237v-8.6h6.4v1.5h-4.6v1.9h4.3v1.5h-4.3v2.1h4.8V68.2z"/>
	<path fill="#FFFFFF" d="M245.4,56h4.7c0.5,0,0.9,0,1.4,0.1s0.8,0.1,1.2,0.2s0.7,0.3,1,0.5c0.3,0.2,0.5,0.5,0.7,0.8
		c0.2,0.3,0.3,0.7,0.4,1c0.1,0.4,0.1,0.7,0.1,1.1c0,1.3-0.4,2.3-1.3,3c-0.9,0.7-2.1,1-3.7,1H248v4.5h-2.6V56z M248,61.7h1.6
		c0.3,0,0.7,0,1,0c0.3,0,0.6-0.1,0.9-0.2c0.2-0.1,0.4-0.3,0.6-0.6c0.1-0.2,0.2-0.6,0.2-1c0-0.4-0.1-0.8-0.2-1s-0.3-0.4-0.6-0.5
		c-0.2-0.1-0.5-0.2-0.8-0.2c-0.3,0-0.7,0-1,0H248V61.7z"/>
	<path fill="#FFFFFF" d="M267.2,68.2h-2.7l-1-2.9h-4.4l-1,2.9h-2.6l4.3-12.3h2.9L267.2,68.2z M262.9,63.2l-1.6-5l-1.6,5H262.9z"/>
	<path fill="#FFFFFF" d="M271.3,67.5c0,0.7-0.1,1.3-0.4,1.8c-0.3,0.6-0.8,1-1.4,1.1v-0.9c0.3-0.1,0.5-0.2,0.7-0.5
		c0.2-0.3,0.2-0.5,0.2-0.8c-0.1,0-0.2,0-0.3,0c-0.3,0-0.6-0.1-0.8-0.3c-0.2-0.2-0.3-0.5-0.3-0.7c0-0.3,0.1-0.5,0.3-0.8
		c0.2-0.2,0.5-0.3,0.8-0.3c0.4,0,0.6,0.1,0.9,0.4C271.2,66.8,271.3,67.1,271.3,67.5z"/>
	<path fill="#FFFFFF" d="M136.6,94.4c-0.6,0-1.2-0.1-1.7-0.3c-0.5-0.2-0.9-0.5-1.3-0.9c-0.3-0.4-0.6-0.9-0.8-1.4
		c-0.2-0.5-0.3-1.2-0.3-1.8s0.1-1.3,0.3-1.8c0.2-0.5,0.5-1,0.8-1.4c0.3-0.4,0.8-0.7,1.3-0.9s1-0.3,1.6-0.3c0.5,0,0.9,0.1,1.3,0.2
		s0.8,0.3,1.1,0.6c0.3,0.2,0.6,0.5,0.8,0.9c0.2,0.3,0.3,0.7,0.4,1.1h-1.2c0-0.3-0.1-0.5-0.2-0.7c-0.1-0.2-0.3-0.4-0.5-0.6
		s-0.4-0.3-0.7-0.4s-0.6-0.1-0.9-0.1c-0.4,0-0.8,0.1-1.2,0.2c-0.3,0.2-0.6,0.4-0.9,0.7c-0.2,0.3-0.4,0.7-0.6,1.1s-0.2,0.9-0.2,1.5
		s0.1,1,0.2,1.5c0.1,0.4,0.3,0.8,0.6,1.1s0.5,0.5,0.9,0.7c0.3,0.2,0.7,0.2,1.2,0.2c0.7,0,1.2-0.2,1.6-0.5c0.4-0.3,0.7-0.8,0.7-1.4
		h1.2c0,0.5-0.2,0.9-0.3,1.2s-0.4,0.7-0.7,0.9c-0.3,0.2-0.7,0.4-1.1,0.6S137.1,94.4,136.6,94.4z"/>
	<path fill="#FFFFFF" d="M148.7,94.2h-1.3l-1-2.6h-3.6l-1,2.6h-1.2l3.3-8.6h1.2L148.7,94.2z M146.1,90.7l-1.5-4l-1.4,4H146.1z"/>
	<path fill="#FFFFFF" d="M155,94.2h-5.3v-8.6h1.1v7.6h4.2V94.2z"/>
	<path fill="#FFFFFF" d="M161.7,94.2h-5.3v-8.6h1.1v7.6h4.2V94.2z"/>
	<path fill="#FFFFFF" d="M176.4,94.2h-2.6v-9c-0.4,0.2-0.8,0.4-1.2,0.5c-0.5,0.1-1,0.2-1.7,0.2v-2c1.1,0,1.9-0.2,2.4-0.6
		c0.6-0.4,0.9-0.9,1.1-1.7h2V94.2z"/>
	<path fill="#FFFFFF" d="M184.8,90.6h-4.9v-1.9h4.9V90.6z"/>
	<path fill="#FFFFFF" d="M192.6,87.8c0.9,0.4,1.5,0.8,1.9,1.3c0.4,0.5,0.6,1.1,0.6,1.9c0,0.5-0.1,1-0.3,1.5s-0.5,0.8-0.9,1.1
		s-0.9,0.5-1.4,0.7s-1.2,0.2-1.9,0.2c-0.7,0-1.3-0.1-1.9-0.2c-0.6-0.2-1-0.4-1.4-0.7c-0.4-0.3-0.7-0.7-0.9-1.1
		c-0.2-0.4-0.3-0.9-0.3-1.5c0-0.7,0.2-1.4,0.7-1.9c0.4-0.5,1.1-0.9,1.9-1.3c-0.8-0.4-1.3-0.8-1.6-1.3s-0.5-1-0.5-1.6
		c0-0.5,0.1-1,0.3-1.4s0.5-0.7,0.9-1c0.4-0.3,0.8-0.5,1.3-0.6c0.5-0.1,1-0.2,1.6-0.2c0.6,0,1.1,0.1,1.6,0.2c0.5,0.1,0.9,0.3,1.3,0.6
		c0.4,0.3,0.7,0.6,0.9,1c0.2,0.4,0.3,0.8,0.3,1.4c0,0.6-0.2,1.2-0.5,1.6C193.8,87,193.2,87.4,192.6,87.8z M192.5,90.9
		c0-0.5-0.2-0.8-0.5-1.2c-0.3-0.3-0.8-0.6-1.4-0.9c-0.6,0.3-1.1,0.6-1.4,0.9c-0.3,0.3-0.5,0.7-0.5,1.2c0,0.5,0.2,1,0.5,1.3
		c0.3,0.3,0.8,0.5,1.4,0.5s1-0.2,1.4-0.5C192.3,91.8,192.5,91.4,192.5,90.9z M190.6,86.9c0.5-0.2,0.9-0.5,1.2-0.8
		c0.3-0.3,0.4-0.7,0.4-1c0-0.4-0.1-0.8-0.4-1c-0.3-0.3-0.7-0.4-1.2-0.4s-0.9,0.1-1.2,0.4s-0.4,0.6-0.4,1c0,0.4,0.1,0.7,0.4,1
		C189.7,86.4,190.1,86.6,190.6,86.9z"/>
	<path fill="#FFFFFF" d="M205.5,91.5h-1.6v2.8h-2.5v-2.8h-5.4v-1.8l5.4-7.8h2.5v7.7h1.6V91.5z M201.5,89.5V85l-3.1,4.6H201.5z"/>
	<path fill="#FFFFFF" d="M215.8,91.5h-1.6v2.8h-2.5v-2.8h-5.4v-1.8l5.4-7.8h2.5v7.7h1.6V91.5z M211.8,89.5V85l-3.1,4.6H211.8z"/>
	<path fill="#FFFFFF" d="M222,90.6h-4.9v-1.9h4.9V90.6z"/>
	<path fill="#FFFFFF" d="M223.9,82h4.7c0.5,0,0.9,0,1.4,0.1c0.4,0,0.8,0.1,1.2,0.2s0.7,0.3,1,0.5c0.3,0.2,0.5,0.5,0.7,0.8
		c0.2,0.3,0.3,0.7,0.4,1c0.1,0.4,0.1,0.7,0.1,1.1c0,1.3-0.4,2.3-1.3,3c-0.9,0.7-2.1,1-3.7,1h-1.9v4.5h-2.6V82z M226.5,87.7h1.6
		c0.3,0,0.7,0,1,0c0.3,0,0.6-0.1,0.9-0.2c0.2-0.1,0.4-0.3,0.6-0.6s0.2-0.6,0.2-1c0-0.4-0.1-0.8-0.2-1c-0.1-0.2-0.3-0.4-0.6-0.5
		c-0.2-0.1-0.5-0.2-0.8-0.2s-0.7,0-1,0h-1.6V87.7z"/>
	<path fill="#FFFFFF" d="M245.7,94.2H243l-1-2.9h-4.4l-1,2.9H234l4.3-12.3h2.9L245.7,94.2z M241.4,89.2l-1.6-5l-1.6,5H241.4z"/>
	<path fill="#FFFFFF" d="M255.4,91.5h-1.6v2.8h-2.5v-2.8H246v-1.8l5.4-7.8h2.5v7.7h1.6V91.5z M251.4,89.5V85l-3.1,4.6H251.4z"/>
	<path fill="#FFFFFF" d="M261.5,90.6h-4.9v-1.9h4.9V90.6z"/>
	<path fill="#FFFFFF" d="M274.1,94.2h-2.8l-1.1-3c-0.2-0.6-0.5-1-0.8-1.3c-0.4-0.3-0.8-0.4-1.3-0.4h-2v4.7h-2.6V82h5.5
		c0.5,0,0.9,0,1.3,0.1c0.4,0,0.8,0.1,1.1,0.2c0.3,0.1,0.6,0.2,0.9,0.4c0.3,0.2,0.5,0.4,0.7,0.7c0.2,0.3,0.4,0.6,0.5,1
		s0.2,0.7,0.2,1.2c0,0.9-0.2,1.6-0.7,2.1c-0.5,0.5-1.1,0.9-1.9,1.1c0.2,0.1,0.5,0.2,0.7,0.4c0.2,0.1,0.4,0.3,0.5,0.5
		c0.2,0.2,0.3,0.4,0.4,0.7s0.3,0.6,0.4,0.9L274.1,94.2z M266,87.4h2.6c0.8,0,1.3-0.1,1.7-0.4s0.5-0.7,0.5-1.4c0-1.1-0.7-1.7-2-1.7
		H266V87.4z"/>
	<path fill="#FFFFFF" d="M278.4,94.2h-2.6V82h2.6V94.2z"/>
	<path fill="#FFFFFF" d="M281,82h4.1c2.1,0,3.8,0.5,4.8,1.5c1.1,1,1.6,2.5,1.6,4.6c0,2.1-0.5,3.6-1.6,4.7c-1.1,1-2.7,1.6-4.8,1.6
		H281V82z M283.6,92h1.5c1.5,0,2.5-0.3,3-1c0.3-0.4,0.5-0.8,0.6-1.3s0.2-1.1,0.2-1.7c0-0.6-0.1-1.2-0.2-1.6
		c-0.1-0.5-0.3-0.9-0.6-1.2c-0.5-0.7-1.5-1-3-1h-1.5V92z"/>
	<path fill="#FFFFFF" d="M303,94.2h-9.5V82h9.2v2.2h-6.6v2.8h6.1v2.2h-6.1V92h6.8V94.2z"/>
</g>
<g>
	<circle fill="#B7E4F4" stroke="#B7E4F4" stroke-width="4" stroke-miterlimit="10" cx="65.7" cy="68.3" r="63.7"/>
	<g>
		
			<circle fill="none" stroke="#9F3092" stroke-width="4" stroke-miterlimit="10" stroke-dasharray="11.7686,5.8843,8.8264,5.8843,11.7686,5.8843" cx="65.7" cy="68.3" r="63.7"/>
	</g>
	<g>
		<path fill="none" stroke="#9F3092" stroke-width="3" stroke-miterlimit="10" d="M67,61.1c18.8-0.3,28.3-3.5,28.3-3.5l-7-19.1
			c-3.6-3.6-18.2-3.5-22.7-3.4c-4.5-0.1-19.1-0.1-22.7,3.4l-7,19.1c0,0,9.5,3.2,28.3,3.5v0c0.5,0,0.9,0,1.3,0
			C66.1,61.1,66.6,61.1,67,61.1L67,61.1z"/>
		<g>
			<path fill="none" stroke="#9F3092" stroke-width="3" stroke-miterlimit="10" d="M31.4,72.6v4.7c0,1.3,1.1,2.4,2.4,2.4h15.1
				c1.3,0,2.4-1.1,2.4-2.4v0c0-1.1-0.7-2-1.7-2.3l-15.1-4.7C33,69.8,31.4,71,31.4,72.6z"/>
			<path fill="none" stroke="#9F3092" stroke-width="3" stroke-miterlimit="10" d="M100,72.6v4.7c0,1.3-1.1,2.4-2.4,2.4H82.4
				c-1.3,0-2.4-1.1-2.4-2.4v0c0-1.1,0.7-2,1.7-2.3l15.1-4.7C98.4,69.8,100,71,100,72.6z"/>
		</g>
		<path fill="none" stroke="#9F3092" stroke-width="3" stroke-miterlimit="10" d="M112.3,58c-0.1-0.2-0.3-0.3-0.4-0.5
			c-0.6-0.4-2-1.4-3.1-1.4h-3.3c-4-10.4-9.5-23-9.5-23c-5-7-25.8-7-30.2-6.9c-4.4-0.1-25.2-0.1-30.2,6.9c0,0-5.5,12.7-9.5,23h-3.3
			c-1.1,0-2.5,1-3.1,1.4c-0.2,0.1-0.3,0.3-0.4,0.5c-0.6,0.8-2.2,3.5-2.2,5.1c0,1.2,0.8,2.1,1.3,2.5c0.3,0.2,0.7,0.4,1.1,0.4h3.2
			c-0.4,1.3-0.6,2.2-0.6,2.8v26.1c0.2,0,2.1,0,5.1,0v9.2h13.8v-9.2c9.6,0,20.1,0,24,0c1,0,1.6,0,1.6,0c3.9,0,14.4,0,24,0v9.2h13.8
			v-9.2c2.9,0,4.9,0,5.1,0V68.9c0-0.6-0.2-1.6-0.6-2.8h3.2c0.4,0,0.8-0.1,1.1-0.4c0.5-0.4,1.3-1.3,1.3-2.5
			C114.5,61.6,112.8,58.9,112.3,58z"/>
	</g>
</g>
</svg>
