<?xml version="1.0" encoding="utf-8"?>
<!-- Generator: Adobe Illustrator 19.0.0, SVG Export Plug-In . SVG Version: 6.00 Build 0)  -->
<!DOCTYPE svg PUBLIC "-//W3C//DTD SVG 1.1//EN" "http://www.w3.org/Graphics/SVG/1.1/DTD/svg11.dtd">
<svg version="1.1" id="Layer_1" xmlns="http://www.w3.org/2000/svg" xmlns:xlink="http://www.w3.org/1999/xlink" x="0px" y="0px"
	 viewBox="-145 353.7 320 87.3" style="enable-background:new -145 353.7 320 87.3;" xml:space="preserve">
<style type="text/css">
	.st0{fill:none;stroke:#028443;stroke-width:3;stroke-miterlimit:10;stroke-dasharray:12,6,9,6,12,6;}
	.st1{fill:url(#SVGID_1_);}
	.st2{display:none;}
	.st3{display:inline;fill:#FFFFFF;}
	.st4{fill:#B7E4F4;stroke:#B7E4F4;stroke-miterlimit:10;}
	
		.st5{fill:none;stroke:#028443;stroke-width:4;stroke-miterlimit:10;stroke-dasharray:11.5448,5.7724,8.6586,5.7724,11.5448,5.7724;}
	.st6{fill:none;stroke:#028443;stroke-width:2;stroke-miterlimit:10;}
	.st7{fill:none;}
	.st8{fill:#FCFCFC;}
	.st9{font-family:'Futura-Medium';}
	.st10{font-size:16px;}
</style>
<path class="st0" d="M121.4,369.7H-68.5c0,0-17-0.8-17,7.5s0,35,0,35s1.3,13.3-9.6,13.3s-47.9,0-47.9,0"/>
<linearGradient id="SVGID_1_" gradientUnits="userSpaceOnUse" x1="-705.0517" y1="-497.7337" x2="-494.5517" y2="-497.7337" gradientTransform="matrix(1 0 0 -1 634.4517 -95.1337)">
	<stop  offset="0" style="stop-color:#30C3E5"/>
	<stop  offset="1" style="stop-color:#19447A"/>
</linearGradient>
<path class="st1" d="M126.7,422.5h-184c-7.3,0-13.3-5.9-13.3-13.3V396c0-7.3,5.9-13.3,13.2-13.3h184c7.3,0,13.3,5.9,13.3,13.3v13.3
	C139.9,416.6,134,422.5,126.7,422.5z"/>
<g class="st2">
	<path class="st3" d="M-14,318.7h-2.5v-5.1h-4.7v5.1h-2.5V307h2.5v4.5h4.7V307h2.5V318.7z"/>
	<path class="st3" d="M-8.3,310.4c0.6,0,1.1,0.1,1.6,0.3c0.5,0.2,0.9,0.5,1.2,0.9s0.6,0.8,0.8,1.3s0.3,1.1,0.3,1.7s-0.1,1.2-0.3,1.7
		s-0.4,1-0.8,1.3c-0.3,0.4-0.7,0.7-1.2,0.9s-1,0.3-1.6,0.3s-1.2-0.1-1.7-0.3s-0.9-0.5-1.2-0.9s-0.6-0.8-0.8-1.3
		c-0.2-0.5-0.3-1.1-0.3-1.7s0.1-1.2,0.3-1.7c0.2-0.5,0.4-1,0.8-1.3c0.4-0.3,0.8-0.7,1.2-0.9C-9.5,310.5-9,310.4-8.3,310.4z
		 M-8.4,317.4c0.3,0,0.6-0.1,0.9-0.2c0.3-0.1,0.5-0.3,0.7-0.6c0.2-0.2,0.3-0.5,0.4-0.9c0.1-0.4,0.1-0.7,0.1-1.1s0-0.8-0.1-1.1
		s-0.2-0.6-0.4-0.9c-0.2-0.2-0.4-0.4-0.7-0.6c-0.3-0.1-0.6-0.2-0.9-0.2c-0.3,0-0.7,0.1-0.9,0.2c-0.3,0.1-0.5,0.3-0.7,0.6
		c-0.2,0.2-0.3,0.5-0.4,0.9s-0.1,0.7-0.1,1.1s0,0.8,0.1,1.1c0.1,0.3,0.2,0.6,0.4,0.9c0.2,0.2,0.4,0.4,0.7,0.6
		C-9,317.4-8.7,317.4-8.4,317.4z"/>
	<path class="st3" d="M7,310.5l-2,8.2H3.1l-1.5-6.3l-1.4,6.3h-1.9l-2-8.2H-2l1.3,6.5l1.5-6.5h1.7L4,317l1.3-6.5H7z"/>
	<path class="st3" d="M18.7,312h-2.4v6.7h-1.7V312h-2.5v-1.5h6.6V312z"/>
	<path class="st3" d="M23.4,310.4c0.6,0,1.1,0.1,1.6,0.3c0.5,0.2,0.9,0.5,1.2,0.9s0.6,0.8,0.8,1.3s0.3,1.1,0.3,1.7s-0.1,1.2-0.3,1.7
		s-0.4,1-0.8,1.3c-0.3,0.4-0.7,0.7-1.2,0.9s-1,0.3-1.6,0.3s-1.2-0.1-1.7-0.3s-0.9-0.5-1.2-0.9s-0.6-0.8-0.8-1.3s-0.3-1.1-0.3-1.7
		s0.1-1.2,0.3-1.7s0.4-1,0.8-1.3c0.4-0.3,0.8-0.7,1.2-0.9C22.3,310.5,22.8,310.4,23.4,310.4z M23.4,317.4c0.3,0,0.6-0.1,0.9-0.2
		c0.3-0.1,0.5-0.3,0.7-0.6c0.2-0.2,0.3-0.5,0.4-0.9c0.1-0.4,0.1-0.7,0.1-1.1s0-0.8-0.1-1.1s-0.2-0.6-0.4-0.9
		c-0.2-0.2-0.4-0.4-0.7-0.6c-0.3-0.1-0.6-0.2-0.9-0.2c-0.3,0-0.7,0.1-0.9,0.2c-0.3,0.1-0.5,0.3-0.7,0.6c-0.2,0.2-0.3,0.5-0.4,0.9
		s-0.1,0.7-0.1,1.1s0,0.8,0.1,1.1c0.1,0.3,0.2,0.6,0.4,0.9c0.2,0.2,0.4,0.4,0.7,0.6C22.8,317.4,23.1,317.4,23.4,317.4z"/>
	<path class="st3" d="M36.9,318.9c-0.5,0-0.9,0-1.3-0.1c-0.4-0.1-0.7-0.2-0.9-0.4c-0.3-0.2-0.5-0.3-0.6-0.6
		c-0.2-0.2-0.3-0.5-0.4-0.7c-0.1-0.3-0.1-0.6-0.2-0.9c-0.1-0.3,0-0.6,0-1v-4.7h1.7v4.7c0,0.4,0,0.7,0.1,1c0.1,0.3,0.1,0.5,0.3,0.7
		c0.1,0.2,0.3,0.3,0.5,0.4c0.2,0.1,0.5,0.1,0.8,0.1s0.5,0,0.8-0.1c0.2-0.1,0.4-0.2,0.5-0.4c0.1-0.2,0.2-0.4,0.3-0.6
		c0.1-0.2,0.1-0.6,0.1-1v-4.7h1.7v4.7c0,0.3,0,0.6,0,0.9c0,0.3-0.1,0.6-0.2,0.8s-0.2,0.5-0.3,0.7c-0.1,0.2-0.4,0.4-0.6,0.6
		c-0.2,0.2-0.6,0.3-0.9,0.4C37.9,318.8,37.4,318.9,36.9,318.9z"/>
	<path class="st3" d="M45.2,318.9c-1.1,0-2-0.2-2.6-0.7s-1-1.2-1-2.2h1.7c0.1,0.5,0.3,0.9,0.6,1.1c0.3,0.2,0.8,0.4,1.3,0.4
		s0.9-0.1,1.2-0.3c0.3-0.2,0.5-0.4,0.5-0.8c0-0.2,0-0.3-0.1-0.4s-0.2-0.2-0.3-0.3c-0.2-0.1-0.3-0.2-0.6-0.2s-0.5-0.1-0.8-0.2
		l-0.3-0.1c-0.4-0.1-0.8-0.2-1.1-0.3s-0.7-0.2-0.9-0.4s-0.5-0.4-0.6-0.7c-0.2-0.3-0.2-0.6-0.2-1.1c0-0.4,0.1-0.8,0.3-1.1
		c0.2-0.3,0.4-0.6,0.7-0.8c0.3-0.2,0.6-0.3,1-0.4s0.8-0.1,1.2-0.1c0.5,0,0.9,0.1,1.4,0.2c0.4,0.1,0.8,0.3,1,0.5
		c0.3,0.2,0.5,0.5,0.7,0.8c0.2,0.3,0.3,0.7,0.3,1.1h-1.7c0-0.4-0.2-0.7-0.5-0.9s-0.7-0.3-1.2-0.3s-0.8,0.1-1.1,0.3s-0.4,0.4-0.4,0.7
		c0,0.1,0,0.3,0.1,0.4s0.2,0.2,0.3,0.3s0.3,0.1,0.5,0.2s0.5,0.1,0.8,0.2c0.3,0.1,0.6,0.1,0.9,0.2s0.5,0.1,0.8,0.2
		c0.2,0.1,0.5,0.2,0.7,0.3s0.4,0.3,0.5,0.4s0.3,0.4,0.3,0.6c0.1,0.2,0.1,0.5,0.1,0.8c0,0.4-0.1,0.8-0.2,1.1
		c-0.2,0.3-0.4,0.6-0.7,0.8c-0.3,0.2-0.6,0.4-1.1,0.5C46.1,318.8,45.7,318.9,45.2,318.9z"/>
	<path class="st3" d="M56.2,318.7h-6.3v-8.2H56v1.5h-4.4v1.8h4.1v1.5h-4.1v2h4.6L56.2,318.7L56.2,318.7z"/>
	<path class="st3" d="M64.2,318.7h-1.7v-8.2h1.7V318.7z"/>
	<path class="st3" d="M71.9,312h-2.4v6.7h-1.7V312h-2.4v-1.5H72v1.5H71.9z"/>
</g>
<g>
	<circle class="st4" cx="127.4" cy="396.8" r="40.2"/>
	<g>
		<circle class="st5" cx="127.4" cy="396.8" r="39.1"/>
	</g>
</g>
<g>
	<path class="st6" d="M128.2,396.2c11.2-0.2,16.8-2,16.8-2l-4.1-10.9c-2.2-2-10.8-2-13.5-2c-2.7-0.1-11.3-0.1-13.5,2l-4.1,10.9
		c0,0,5.6,1.8,16.8,2l0,0c0.3,0,0.5,0,0.8,0C127.6,396.2,127.9,396.2,128.2,396.2L128.2,396.2z"/>
	<g>
		<circle class="st6" cx="111.4" cy="402.6" r="2.9"/>
		<circle class="st6" cx="143.4" cy="402.6" r="2.9"/>
	</g>
	<path class="st6" d="M152.6,391.5c-0.1-0.1-0.1-0.2-0.2-0.3c-0.3-0.2-1.1-0.8-1.7-0.8h-1.3c-2.2-7-5.6-16.7-5.6-16.7
		c-2.7-4.6-14-4.6-16.4-4.5c-2.4-0.1-13.7-0.1-16.4,4.5c0,0-3.5,9.7-5.6,16.7h-1.3c-0.6,0-1.4,0.5-1.7,0.8c-0.1,0.1-0.2,0.2-0.2,0.3
		c-0.3,0.5-1.2,2-1.2,2.9c0,0.7,0.4,1.2,0.7,1.4c0.2,0.1,0.4,0.2,0.6,0.2h1.6c-0.1,0.5-0.2,0.9-0.2,1.2v17.1c0.1,0,1.2,0,2.8,0v5.2
		h7.5v-5.2c5.2,0,10.9,0,13,0c0.6,0,0.9,0,0.9,0c2.1,0,7.8,0,13,0v5.2h7.5v-5.2c1.6,0,2.6,0,2.8,0v-17.1c0-0.3-0.1-0.7-0.2-1.2h1.6
		c0.2,0,0.4-0.1,0.6-0.2c0.3-0.2,0.7-0.7,0.7-1.4C153.8,393.5,152.9,391.9,152.6,391.5z"/>
	<path class="st6" d="M127.5,399.7h-0.2h-8.1c-1.4,0-2.3,1.7-1.8,3.4l2,6.4c0.3,0.9,1,1.6,1.8,1.6h6.1h0.2h6.1
		c0.8,0,1.5-0.6,1.8-1.6l2-6.4c0.5-1.6-0.4-3.4-1.8-3.4H127.5z"/>
</g>
<rect x="-38.6" y="394.3" class="st7" width="100" height="17.5"/>
<text transform="matrix(1 0 0 1 -38.6 407.5382)" class="st8 st9 st10">How it Works</text>
</svg>
