<?xml version="1.0" encoding="utf-8"?>
<!-- Generator: Adobe Illustrator 18.0.0, SVG Export Plug-In . SVG Version: 6.00 Build 0)  -->
<!DOCTYPE svg PUBLIC "-//W3C//DTD SVG 1.1//EN" "http://www.w3.org/Graphics/SVG/1.1/DTD/svg11.dtd">
<svg version="1.1" id="Layer_1" xmlns="http://www.w3.org/2000/svg" xmlns:xlink="http://www.w3.org/1999/xlink" x="0px" y="0px"
	 viewBox="0 0 320 87.3" enable-background="new 0 0 320 87.3" xml:space="preserve">
<path fill="none" stroke="#028443" stroke-width="3" stroke-miterlimit="10" stroke-dasharray="12,6,9,6,12,6" d="M266.4,16H76.5
	c0,0-17-0.8-17,7.5s0,35,0,35s1.3,13.3-9.6,13.3S2,71.8,2,71.8"/>
<linearGradient id="SVGID_1_" gradientUnits="userSpaceOnUse" x1="-560.0984" y1="941.461" x2="-349.5036" y2="941.461" gradientTransform="matrix(1 0 0 1 634.4517 -892.5337)">
	<stop  offset="0" style="stop-color:#30C3E5"/>
	<stop  offset="1" style="stop-color:#19447A"/>
</linearGradient>
<path fill="url(#SVGID_1_)" d="M271.7,68.8h-184c-7.3,0-13.3-5.9-13.3-13.3V42.3C74.4,35,80.3,29,87.6,29h184
	c7.3,0,13.3,5.9,13.3,13.3v13.3C284.9,62.9,279,68.8,271.7,68.8z"/>
<g>
	<path fill="#FFFFFF" d="M122.9,54.7h-2.5v-5.1h-4.7v5.1h-2.5V43h2.5v4.5h4.7V43h2.5V54.7z"/>
	<path fill="#FFFFFF" d="M128.6,46.4c0.6,0,1.1,0.1,1.6,0.3c0.5,0.2,0.9,0.5,1.2,0.9s0.6,0.8,0.8,1.3c0.2,0.5,0.3,1.1,0.3,1.7
		c0,0.6-0.1,1.2-0.3,1.7c-0.2,0.5-0.4,1-0.8,1.3c-0.3,0.4-0.7,0.7-1.2,0.9c-0.5,0.2-1,0.3-1.6,0.3c-0.6,0-1.2-0.1-1.7-0.3
		c-0.5-0.2-0.9-0.5-1.2-0.9s-0.6-0.8-0.8-1.3c-0.2-0.5-0.3-1.1-0.3-1.7c0-0.6,0.1-1.2,0.3-1.7c0.2-0.5,0.4-1,0.8-1.3
		s0.8-0.7,1.2-0.9C127.4,46.5,127.9,46.4,128.6,46.4z M128.5,53.4c0.3,0,0.6-0.1,0.9-0.2s0.5-0.3,0.7-0.6c0.2-0.2,0.3-0.5,0.4-0.9
		s0.1-0.7,0.1-1.1c0-0.4,0-0.8-0.1-1.1c-0.1-0.3-0.2-0.6-0.4-0.9c-0.2-0.2-0.4-0.4-0.7-0.6c-0.3-0.1-0.6-0.2-0.9-0.2
		c-0.3,0-0.7,0.1-0.9,0.2c-0.3,0.1-0.5,0.3-0.7,0.6c-0.2,0.2-0.3,0.5-0.4,0.9s-0.1,0.7-0.1,1.1c0,0.4,0,0.8,0.1,1.1s0.2,0.6,0.4,0.9
		c0.2,0.2,0.4,0.4,0.7,0.6S128.2,53.4,128.5,53.4z"/>
	<path fill="#FFFFFF" d="M143.9,46.5l-2,8.2h-1.9l-1.5-6.3l-1.4,6.3h-1.9l-2-8.2h1.7l1.3,6.5l1.5-6.5h1.7l1.5,6.5l1.3-6.5H143.9z"/>
	<path fill="#FFFFFF" d="M155.6,48h-2.4v6.7h-1.7V48H149v-1.5h6.6V48z"/>
	<path fill="#FFFFFF" d="M160.3,46.4c0.6,0,1.1,0.1,1.6,0.3c0.5,0.2,0.9,0.5,1.2,0.9s0.6,0.8,0.8,1.3c0.2,0.5,0.3,1.1,0.3,1.7
		c0,0.6-0.1,1.2-0.3,1.7c-0.2,0.5-0.4,1-0.8,1.3c-0.3,0.4-0.7,0.7-1.2,0.9c-0.5,0.2-1,0.3-1.6,0.3c-0.6,0-1.2-0.1-1.7-0.3
		c-0.5-0.2-0.9-0.5-1.2-0.9s-0.6-0.8-0.8-1.3c-0.2-0.5-0.3-1.1-0.3-1.7c0-0.6,0.1-1.2,0.3-1.7c0.2-0.5,0.4-1,0.8-1.3
		s0.8-0.7,1.2-0.9C159.2,46.5,159.7,46.4,160.3,46.4z M160.3,53.4c0.3,0,0.6-0.1,0.9-0.2s0.5-0.3,0.7-0.6c0.2-0.2,0.3-0.5,0.4-0.9
		s0.1-0.7,0.1-1.1c0-0.4,0-0.8-0.1-1.1c-0.1-0.3-0.2-0.6-0.4-0.9c-0.2-0.2-0.4-0.4-0.7-0.6c-0.3-0.1-0.6-0.2-0.9-0.2
		c-0.3,0-0.7,0.1-0.9,0.2c-0.3,0.1-0.5,0.3-0.7,0.6c-0.2,0.2-0.3,0.5-0.4,0.9s-0.1,0.7-0.1,1.1c0,0.4,0,0.8,0.1,1.1s0.2,0.6,0.4,0.9
		c0.2,0.2,0.4,0.4,0.7,0.6S160,53.4,160.3,53.4z"/>
	<path fill="#FFFFFF" d="M173.8,54.9c-0.5,0-0.9,0-1.3-0.1s-0.7-0.2-0.9-0.4c-0.3-0.2-0.5-0.3-0.6-0.6c-0.2-0.2-0.3-0.5-0.4-0.7
		c-0.1-0.3-0.1-0.6-0.2-0.9s0-0.6,0-1v-4.7h1.7v4.7c0,0.4,0,0.7,0.1,1c0.1,0.3,0.1,0.5,0.3,0.7c0.1,0.2,0.3,0.3,0.5,0.4
		s0.5,0.1,0.8,0.1c0.3,0,0.5,0,0.8-0.1c0.2-0.1,0.4-0.2,0.5-0.4c0.1-0.2,0.2-0.4,0.3-0.6s0.1-0.6,0.1-1v-4.7h1.7v4.7
		c0,0.3,0,0.6,0,0.9s-0.1,0.6-0.2,0.8s-0.2,0.5-0.3,0.7s-0.4,0.4-0.6,0.6c-0.2,0.2-0.6,0.3-0.9,0.4
		C174.8,54.8,174.3,54.9,173.8,54.9z"/>
	<path fill="#FFFFFF" d="M182.1,54.9c-1.1,0-2-0.2-2.6-0.7c-0.6-0.5-1-1.2-1-2.2h1.7c0.1,0.5,0.3,0.9,0.6,1.1s0.8,0.4,1.3,0.4
		c0.5,0,0.9-0.1,1.2-0.3c0.3-0.2,0.5-0.4,0.5-0.8c0-0.2,0-0.3-0.1-0.4c-0.1-0.1-0.2-0.2-0.3-0.3c-0.2-0.1-0.3-0.2-0.6-0.2
		s-0.5-0.1-0.8-0.2l-0.3-0.1c-0.4-0.1-0.8-0.2-1.1-0.3c-0.3-0.1-0.7-0.2-0.9-0.4s-0.5-0.4-0.6-0.7c-0.2-0.3-0.2-0.6-0.2-1.1
		c0-0.4,0.1-0.8,0.3-1.1c0.2-0.3,0.4-0.6,0.7-0.8c0.3-0.2,0.6-0.3,1-0.4s0.8-0.1,1.2-0.1c0.5,0,0.9,0.1,1.4,0.2
		c0.4,0.1,0.8,0.3,1,0.5c0.3,0.2,0.5,0.5,0.7,0.8c0.2,0.3,0.3,0.7,0.3,1.1h-1.7c0-0.4-0.2-0.7-0.5-0.9c-0.3-0.2-0.7-0.3-1.2-0.3
		c-0.5,0-0.8,0.1-1.1,0.3c-0.3,0.2-0.4,0.4-0.4,0.7c0,0.1,0,0.3,0.1,0.4c0.1,0.1,0.2,0.2,0.3,0.3s0.3,0.1,0.5,0.2
		c0.2,0.1,0.5,0.1,0.8,0.2c0.3,0.1,0.6,0.1,0.9,0.2s0.5,0.1,0.8,0.2c0.2,0.1,0.5,0.2,0.7,0.3c0.2,0.1,0.4,0.3,0.5,0.4
		s0.3,0.4,0.3,0.6c0.1,0.2,0.1,0.5,0.1,0.8c0,0.4-0.1,0.8-0.2,1.1c-0.2,0.3-0.4,0.6-0.7,0.8c-0.3,0.2-0.6,0.4-1.1,0.5
		C183,54.8,182.6,54.9,182.1,54.9z"/>
	<path fill="#FFFFFF" d="M193.1,54.7h-6.3v-8.2h6.1V48h-4.4v1.8h4.1v1.5h-4.1v2h4.6V54.7z"/>
	<path fill="#FFFFFF" d="M201.1,54.7h-1.7v-8.2h1.7V54.7z"/>
	<path fill="#FFFFFF" d="M208.8,48h-2.4v6.7h-1.7V48h-2.4v-1.5h6.6V48z"/>
</g>
<g>
	<circle fill="#B7E4F4" stroke="#B7E4F4" stroke-miterlimit="10" cx="272.4" cy="43.1" r="40.2"/>
	<g>
		
			<circle fill="none" stroke="#028443" stroke-width="4" stroke-miterlimit="10" stroke-dasharray="11.5448,5.7724,8.6586,5.7724,11.5448,5.7724" cx="272.4" cy="43.1" r="39.1"/>
	</g>
</g>
<g>
	<path fill="none" stroke="#028443" stroke-width="2" stroke-miterlimit="10" d="M273.2,42.5c11.2-0.2,16.8-2,16.8-2l-4.1-10.9
		c-2.2-2-10.8-2-13.5-2c-2.7-0.1-11.3-0.1-13.5,2l-4.1,10.9c0,0,5.6,1.8,16.8,2v0c0.3,0,0.5,0,0.8,0
		C272.6,42.5,272.9,42.5,273.2,42.5L273.2,42.5z"/>
	<g>
		<circle fill="none" stroke="#028443" stroke-width="2" stroke-miterlimit="10" cx="256.4" cy="48.9" r="2.9"/>
		<circle fill="none" stroke="#028443" stroke-width="2" stroke-miterlimit="10" cx="288.4" cy="48.9" r="2.9"/>
	</g>
	<path fill="none" stroke="#028443" stroke-width="2" stroke-miterlimit="10" d="M297.6,37.8c-0.1-0.1-0.1-0.2-0.2-0.3
		c-0.3-0.2-1.1-0.8-1.7-0.8h-1.3c-2.2-7-5.6-16.7-5.6-16.7c-2.7-4.6-14-4.6-16.4-4.5c-2.4-0.1-13.7-0.1-16.4,4.5
		c0,0-3.5,9.7-5.6,16.7h-1.3c-0.6,0-1.4,0.5-1.7,0.8c-0.1,0.1-0.2,0.2-0.2,0.3c-0.3,0.5-1.2,2-1.2,2.9c0,0.7,0.4,1.2,0.7,1.4
		c0.2,0.1,0.4,0.2,0.6,0.2h1.6c-0.1,0.5-0.2,0.9-0.2,1.2v17.1c0.1,0,1.2,0,2.8,0v5.2h7.5v-5.2c5.2,0,10.9,0,13,0c0.6,0,0.9,0,0.9,0
		c2.1,0,7.8,0,13,0v5.2h7.5v-5.2c1.6,0,2.6,0,2.8,0V43.5c0-0.3-0.1-0.7-0.2-1.2h1.6c0.2,0,0.4-0.1,0.6-0.2c0.3-0.2,0.7-0.7,0.7-1.4
		C298.8,39.8,297.9,38.2,297.6,37.8z"/>
	<path fill="none" stroke="#028443" stroke-width="2" stroke-miterlimit="10" d="M272.5,46h-0.2h-8.1c-1.4,0-2.3,1.7-1.8,3.4l2,6.4
		c0.3,0.9,1,1.6,1.8,1.6h6.1h0.2h6.1c0.8,0,1.5-0.6,1.8-1.6l2-6.4c0.5-1.6-0.4-3.4-1.8-3.4H272.5z"/>
</g>
</svg>
