<?xml version="1.0" encoding="utf-8"?>
<!-- Generator: Adobe Illustrator 18.0.0, SVG Export Plug-In . SVG Version: 6.00 Build 0)  -->
<!DOCTYPE svg PUBLIC "-//W3C//DTD SVG 1.1//EN" "http://www.w3.org/Graphics/SVG/1.1/DTD/svg11.dtd">
<svg version="1.1" id="Layer_1" xmlns="http://www.w3.org/2000/svg" xmlns:xlink="http://www.w3.org/1999/xlink" x="0px" y="0px"
	 viewBox="0 0 316 158.5" enable-background="new 0 0 316 158.5" xml:space="preserve">
<g>
	<g>
		<line fill="none" stroke="#E3612C" stroke-width="3" stroke-miterlimit="10" x1="23.1" y1="34.3" x2="23.1" y2="40.3"/>
		
			<line fill="none" stroke="#E3612C" stroke-width="3" stroke-miterlimit="10" stroke-dasharray="8.8665,5.911,11.822,5.911" x1="23.1" y1="46.2" x2="23.1" y2="75.7"/>
		
			<path fill="none" stroke="#E3612C" stroke-width="3" stroke-miterlimit="10" stroke-dasharray="11.822,5.911,8.8665,5.911,11.822,5.911" d="
			M23.1,78.7v40.7c0,0-0.5,35.4,22.5,35.4H307"/>
		<line fill="none" stroke="#E3612C" stroke-width="3" stroke-miterlimit="10" x1="310" y1="154.8" x2="316" y2="154.8"/>
	</g>
</g>
<linearGradient id="SVGID_1_" gradientUnits="userSpaceOnUse" x1="-596.4858" y1="973.973" x2="-352.7844" y2="973.973" gradientTransform="matrix(1 0 0 1 634.4517 -892.5337)">
	<stop  offset="0" style="stop-color:#30C3E5"/>
	<stop  offset="1" style="stop-color:#19447A"/>
</linearGradient>
<path fill="url(#SVGID_1_)" d="M261.7,142.1H57.9c-11,0-19.9-8.9-19.9-19.9V40.7c0-11,8.9-19.9,19.9-19.9h203.9
	c11,0,19.9,8.9,19.9,19.9v81.5C281.7,133.2,272.7,142.1,261.7,142.1z"/>
<circle fill="#B7E4F4" stroke="#B7E4F4" stroke-width="2" stroke-miterlimit="10" cx="30.1" cy="30.1" r="26.1"/>
<g>
	
		<circle fill="none" stroke="#E3612C" stroke-width="2" stroke-miterlimit="10" stroke-dasharray="12.8588,6.4294,9.6441,6.4294,12.8588,6.4294" cx="30.1" cy="30.1" r="26.1"/>
</g>
<g>
	<circle fill="none" stroke="#E3612C" stroke-width="2" stroke-miterlimit="10" cx="31.2" cy="13.5" r="3.3"/>
	<path fill="none" stroke="#E3612C" stroke-width="2" stroke-miterlimit="10" d="M40.4,30l-2.9-2.5c0-0.1,0-0.1-0.1-0.2l-4.4-6.8
		c-0.2-0.3-0.4-0.5-0.7-0.6C31.6,19.4,30.9,19,30,19c-0.7,0-1.4,0.2-2,0.7c-0.2,0.1-0.3,0.1-0.5,0.3l-6.2,5.2c0,0,0,0,0,0
		c-0.5,0.2-0.9,0.7-1,1.3l-0.7,5.5c-0.1,0.9,0.5,1.7,1.4,1.8c0.9,0.1,1.7-0.5,1.8-1.4l0.6-4.8l2-1.6l-0.6,5.7
		c-0.1,0.2-0.1,0.3-0.2,0.5l-0.8,7.7L19.5,47c-0.5,0.8-0.2,1.9,0.6,2.4l0.7,0.4c0.8,0.5,1.9,0.2,2.4-0.6l4.5-7.3
		c0.1-0.2,0.2-0.4,0.2-0.6c0.1-0.2,0.2-0.5,0.3-0.7l0.4-4.2l4.5,5.2l0.6,6.9c0.1,1,1,1.8,2.1,1.7l0.4,0c1-0.1,1.8-1,1.7-2.1
		l-0.7-7.5c0-0.1,0-0.2,0-0.2c0-0.3-0.2-0.6-0.4-0.9l-5.1-5.8l0.8-7.9l2.2,3.4c0.1,0.1,0.1,0.2,0.2,0.3c0.1,0.2,0.2,0.4,0.4,0.5
		l3,2.6c0.7,0.6,1.7,0.5,2.3-0.2C41.1,31.6,41,30.5,40.4,30z"/>
</g>
<g>
	<path fill="#FFFFFF" d="M75.9,40.4h6.9c0.7,0,1.4,0,2,0.1c0.6,0.1,1.2,0.2,1.7,0.4s1,0.4,1.4,0.7c0.4,0.3,0.8,0.7,1.1,1.1
		c0.3,0.5,0.5,1,0.6,1.5c0.1,0.5,0.2,1.1,0.2,1.7c0,1.9-0.6,3.4-1.9,4.4c-1.2,1-3,1.5-5.4,1.5h-2.8v6.5h-3.8V40.4z M79.7,48.7H82
		c0.5,0,1,0,1.5-0.1c0.5,0,0.9-0.2,1.2-0.3c0.4-0.2,0.6-0.4,0.9-0.8c0.2-0.4,0.3-0.9,0.3-1.5c0-0.6-0.1-1.1-0.3-1.5
		c-0.2-0.3-0.5-0.6-0.8-0.8c-0.3-0.2-0.8-0.3-1.2-0.3c-0.5,0-1,0-1.5,0h-2.3V48.7z"/>
	<path fill="#FFFFFF" d="M100.2,58.3H92V45.8h2.7V56h5.6V58.3z"/>
	<path fill="#FFFFFF" d="M112.6,58.3h-2.8l-1-3h-4.5l-1,3h-2.6l4.4-12.5h2.9L112.6,58.3z M108.2,53.1l-1.6-5.1l-1.6,5.1H108.2z"/>
	<path fill="#FFFFFF" d="M124.2,58.3h-2.7l-5.1-8.7v8.7h-2.5V45.8h2.7l5.2,8.7v-8.7h2.5V58.3z"/>
	<path fill="#FFFFFF" d="M137,58.3h-2.7l-5.1-8.7v8.7h-2.5V45.8h2.7l5.2,8.7v-8.7h2.5V58.3z"/>
	<path fill="#FFFFFF" d="M142.3,58.3h-2.6V45.8h2.6V58.3z"/>
	<path fill="#FFFFFF" d="M155.3,58.3h-2.7l-5.1-8.7v8.7h-2.5V45.8h2.7l5.2,8.7v-8.7h2.5V58.3z"/>
	<path fill="#FFFFFF" d="M163.3,58.5c-0.9,0-1.7-0.1-2.5-0.4s-1.4-0.7-1.9-1.3c-0.5-0.6-0.9-1.2-1.2-2c-0.3-0.8-0.4-1.7-0.4-2.7
		c0-1,0.1-1.8,0.4-2.6c0.3-0.8,0.7-1.5,1.2-2c0.5-0.6,1.1-1,1.9-1.3s1.6-0.5,2.5-0.5c0.8,0,1.5,0.1,2.1,0.3c0.6,0.2,1.2,0.5,1.7,0.8
		s0.9,0.8,1.1,1.3c0.3,0.5,0.5,1.1,0.5,1.8h-2.6c-0.1-0.6-0.4-1.1-0.9-1.5s-1.2-0.5-2-0.5c-0.5,0-1,0.1-1.4,0.3
		c-0.4,0.2-0.8,0.5-1,0.8c-0.3,0.4-0.5,0.8-0.7,1.3c-0.2,0.5-0.2,1.1-0.2,1.8c0,0.7,0.1,1.3,0.2,1.8c0.2,0.5,0.4,1,0.7,1.3
		s0.7,0.6,1.1,0.8c0.4,0.2,0.9,0.3,1.4,0.3c1.3,0,2.3-0.4,2.9-1.2v-1.4h-2.7v-2h5.3v6.6h-1.6l-0.3-1c-0.4,0.4-0.9,0.7-1.5,0.9
		S164.2,58.5,163.3,58.5z"/>
	<path fill="#FFFFFF" d="M192.3,43.7H187v14.6h-3.8V43.7H178v-3.3h14.3V43.7z"/>
	<path fill="#FFFFFF" d="M204.9,58.3H202l-1.1-3.1c-0.2-0.6-0.5-1.1-0.9-1.3c-0.4-0.3-0.8-0.4-1.3-0.4h-2.1v4.8H194V45.8h5.6
		c0.5,0,0.9,0,1.3,0.1s0.8,0.1,1.1,0.2s0.6,0.2,0.9,0.4c0.3,0.2,0.5,0.4,0.7,0.7c0.2,0.3,0.4,0.6,0.5,1s0.2,0.7,0.2,1.2
		c0,0.9-0.2,1.6-0.7,2.1s-1.1,0.9-1.9,1.1c0.2,0.1,0.5,0.2,0.7,0.4s0.4,0.3,0.5,0.5c0.2,0.2,0.3,0.4,0.4,0.7
		c0.1,0.3,0.3,0.6,0.4,0.9L204.9,58.3z M196.7,51.3h2.6c0.8,0,1.4-0.1,1.7-0.4c0.3-0.3,0.5-0.7,0.5-1.4c0-1.1-0.7-1.7-2-1.7h-2.8
		V51.3z"/>
	<path fill="#FFFFFF" d="M209.3,58.3h-2.6V45.8h2.6V58.3z"/>
	<path fill="#FFFFFF" d="M211.9,45.8h4.8c0.5,0,1,0,1.4,0.1c0.4,0,0.8,0.1,1.2,0.2c0.4,0.1,0.7,0.3,1,0.5s0.5,0.5,0.8,0.8
		c0.2,0.3,0.4,0.7,0.4,1c0.1,0.4,0.1,0.8,0.1,1.2c0,1.4-0.4,2.4-1.3,3.1c-0.9,0.7-2.1,1-3.8,1h-1.9v4.6h-2.7V45.8z M214.6,51.6h1.6
		c0.3,0,0.7,0,1,0c0.3,0,0.6-0.1,0.9-0.2c0.3-0.1,0.5-0.3,0.6-0.6c0.1-0.3,0.2-0.6,0.2-1c0-0.4-0.1-0.8-0.2-1
		c-0.1-0.2-0.3-0.4-0.6-0.5c-0.2-0.1-0.5-0.2-0.9-0.2c-0.3,0-0.7,0-1.1,0h-1.6V51.6z"/>
	<path fill="#FFFFFF" d="M228.5,58.5c-1.7,0-3-0.4-4-1.1c-1-0.7-1.5-1.8-1.6-3.3h2.6c0.1,0.8,0.4,1.3,0.9,1.7
		c0.5,0.4,1.2,0.6,2.1,0.6c0.8,0,1.4-0.1,1.9-0.4c0.5-0.3,0.7-0.7,0.7-1.2c0-0.2-0.1-0.4-0.2-0.6c-0.1-0.2-0.3-0.3-0.5-0.4
		c-0.2-0.1-0.5-0.2-0.9-0.3s-0.7-0.2-1.2-0.3l-0.5-0.1c-0.6-0.2-1.2-0.3-1.7-0.5c-0.5-0.2-1-0.4-1.4-0.6c-0.4-0.3-0.7-0.6-1-1
		c-0.2-0.4-0.4-0.9-0.4-1.6c0-0.6,0.1-1.2,0.4-1.6c0.3-0.5,0.6-0.8,1.1-1.1c0.4-0.3,1-0.5,1.6-0.7s1.2-0.2,1.9-0.2
		c0.8,0,1.4,0.1,2.1,0.3s1.1,0.4,1.6,0.8c0.4,0.3,0.8,0.7,1,1.2s0.4,1,0.4,1.6h-2.6c-0.1-0.6-0.3-1-0.7-1.3s-1-0.5-1.8-0.5
		c-0.7,0-1.3,0.1-1.7,0.4c-0.4,0.3-0.6,0.6-0.6,1.1c0,0.2,0,0.4,0.1,0.5c0.1,0.1,0.3,0.3,0.5,0.4c0.2,0.1,0.5,0.2,0.8,0.3
		c0.3,0.1,0.7,0.2,1.2,0.3c0.5,0.1,0.9,0.2,1.3,0.3s0.8,0.2,1.2,0.3c0.4,0.1,0.7,0.3,1,0.5c0.3,0.2,0.6,0.4,0.8,0.7
		c0.2,0.3,0.4,0.6,0.5,0.9c0.1,0.4,0.2,0.8,0.2,1.2c0,0.6-0.1,1.2-0.4,1.7s-0.6,0.9-1,1.2s-1,0.6-1.6,0.7S229.2,58.5,228.5,58.5z"/>
	<path fill="#FFFFFF" d="M82.6,86.1c0,0.8-0.1,1.5-0.3,2c-0.2,0.6-0.4,1-0.8,1.4s-0.8,0.6-1.3,0.8s-1.1,0.2-1.8,0.2
		c-0.6,0-1.2-0.1-1.6-0.3c-0.5-0.2-0.9-0.4-1.2-0.8c-0.3-0.3-0.6-0.7-0.7-1.2c-0.2-0.5-0.3-1-0.3-1.6v-0.4h2.5
		c0,0.6,0.1,1.1,0.3,1.4c0.2,0.3,0.5,0.5,1,0.5c0.3,0,0.6-0.1,0.7-0.2c0.2-0.1,0.3-0.2,0.4-0.4c0.1-0.2,0.2-0.4,0.2-0.7
		s0.1-0.5,0.1-0.8v-8.3h2.6V86.1z"/>
	<path fill="#FFFFFF" d="M90.3,90.5c-0.8,0-1.4-0.1-1.9-0.2s-1-0.3-1.4-0.6s-0.7-0.5-0.9-0.9c-0.2-0.3-0.4-0.7-0.6-1.1
		c-0.1-0.4-0.2-0.8-0.3-1.3c0-0.5-0.1-1-0.1-1.5v-7.2h2.7V85c0,0.6,0,1.1,0.1,1.5c0.1,0.4,0.2,0.7,0.4,1s0.5,0.4,0.8,0.6
		c0.3,0.1,0.7,0.2,1.2,0.2c0.4,0,0.8-0.1,1.1-0.2c0.3-0.1,0.6-0.3,0.8-0.5c0.2-0.3,0.4-0.6,0.4-1c0.1-0.4,0.1-0.9,0.1-1.5v-7.2h2.6
		V85c0,0.4,0,0.9-0.1,1.3c0,0.4-0.1,0.9-0.2,1.3c-0.1,0.4-0.3,0.8-0.5,1.1c-0.2,0.4-0.5,0.7-0.9,0.9c-0.4,0.3-0.8,0.5-1.4,0.6
		S91.1,90.5,90.3,90.5z"/>
	<path fill="#FFFFFF" d="M102.8,90.5c-1.7,0-3-0.4-4-1.1c-1-0.7-1.5-1.8-1.6-3.3h2.6c0.1,0.8,0.4,1.3,0.9,1.7
		c0.5,0.4,1.2,0.6,2.1,0.6c0.8,0,1.4-0.1,1.9-0.4c0.5-0.3,0.7-0.7,0.7-1.2c0-0.2-0.1-0.4-0.2-0.6c-0.1-0.2-0.3-0.3-0.5-0.4
		c-0.2-0.1-0.5-0.2-0.9-0.3s-0.7-0.2-1.2-0.3l-0.5-0.1c-0.6-0.2-1.2-0.3-1.7-0.5c-0.5-0.2-1-0.4-1.4-0.6c-0.4-0.3-0.7-0.6-1-1
		c-0.2-0.4-0.4-0.9-0.4-1.6c0-0.6,0.1-1.2,0.4-1.6c0.3-0.5,0.6-0.8,1.1-1.1c0.4-0.3,1-0.5,1.6-0.7s1.2-0.2,1.9-0.2
		c0.8,0,1.4,0.1,2.1,0.3s1.1,0.4,1.6,0.8c0.4,0.3,0.8,0.7,1,1.2c0.2,0.5,0.4,1,0.4,1.6h-2.6c-0.1-0.6-0.3-1-0.7-1.3s-1-0.5-1.8-0.5
		c-0.7,0-1.3,0.1-1.7,0.4c-0.4,0.3-0.6,0.6-0.6,1.1c0,0.2,0,0.4,0.1,0.5c0.1,0.1,0.3,0.3,0.5,0.4c0.2,0.1,0.5,0.2,0.8,0.3
		c0.3,0.1,0.7,0.2,1.2,0.3c0.5,0.1,0.9,0.2,1.3,0.3c0.4,0.1,0.8,0.2,1.2,0.3c0.4,0.1,0.7,0.3,1,0.5c0.3,0.2,0.6,0.4,0.8,0.7
		c0.2,0.3,0.4,0.6,0.5,0.9c0.1,0.4,0.2,0.8,0.2,1.2c0,0.6-0.1,1.2-0.4,1.7c-0.2,0.5-0.6,0.9-1,1.2c-0.4,0.3-1,0.6-1.6,0.7
		S103.6,90.5,102.8,90.5z"/>
	<path fill="#FFFFFF" d="M119.1,80.1h-3.7v10.2h-2.6V80.1h-3.7v-2.3h10V80.1z"/>
	<path fill="#FFFFFF" d="M133.6,90.5c-0.9,0-1.7-0.1-2.5-0.4c-0.7-0.3-1.4-0.7-1.9-1.3c-0.5-0.6-0.9-1.2-1.2-2
		c-0.3-0.8-0.4-1.7-0.4-2.7c0-1,0.1-1.8,0.4-2.6c0.3-0.8,0.7-1.5,1.2-2c0.5-0.6,1.1-1,1.9-1.3s1.6-0.5,2.5-0.5
		c0.8,0,1.5,0.1,2.1,0.3c0.6,0.2,1.2,0.5,1.7,0.8c0.5,0.4,0.9,0.8,1.1,1.3s0.5,1.1,0.5,1.8h-2.6c-0.1-0.6-0.4-1.1-0.9-1.5
		c-0.5-0.4-1.2-0.5-2-0.5c-0.5,0-1,0.1-1.4,0.3s-0.7,0.5-1,0.8c-0.3,0.4-0.5,0.8-0.7,1.3s-0.2,1.1-0.2,1.8c0,0.7,0.1,1.3,0.2,1.8
		c0.2,0.5,0.4,1,0.7,1.3s0.7,0.6,1.1,0.8c0.4,0.2,0.9,0.3,1.4,0.3c1.3,0,2.3-0.4,2.9-1.2v-1.4H134v-2h5.3v6.6h-1.6l-0.3-1
		c-0.4,0.4-0.9,0.7-1.5,0.9S134.5,90.5,133.6,90.5z"/>
	<path fill="#FFFFFF" d="M147.2,77.6c0.9,0,1.7,0.2,2.5,0.5s1.4,0.7,1.9,1.3s0.9,1.3,1.2,2s0.4,1.7,0.4,2.6c0,1-0.1,1.8-0.4,2.6
		c-0.3,0.8-0.7,1.5-1.2,2s-1.1,1-1.9,1.3s-1.6,0.5-2.5,0.5c-0.9,0-1.8-0.2-2.5-0.5c-0.7-0.3-1.4-0.7-1.9-1.3c-0.5-0.6-0.9-1.2-1.2-2
		s-0.4-1.7-0.4-2.6c0-1,0.1-1.9,0.4-2.6c0.3-0.8,0.7-1.5,1.2-2c0.5-0.6,1.2-1,1.9-1.3C145.4,77.7,146.3,77.6,147.2,77.6z
		 M147.2,88.2c0.5,0,1-0.1,1.4-0.3c0.4-0.2,0.7-0.5,1-0.9c0.3-0.4,0.5-0.8,0.6-1.3c0.1-0.5,0.2-1.1,0.2-1.7c0-0.6-0.1-1.1-0.2-1.7
		s-0.3-1-0.6-1.3c-0.3-0.4-0.6-0.7-1-0.9c-0.4-0.2-0.9-0.3-1.4-0.3s-1,0.1-1.4,0.3c-0.4,0.2-0.8,0.5-1,0.9c-0.3,0.4-0.5,0.8-0.6,1.3
		c-0.1,0.5-0.2,1.1-0.2,1.7c0,0.6,0.1,1.2,0.2,1.7c0.1,0.5,0.4,1,0.6,1.3c0.3,0.4,0.6,0.7,1,0.9C146.2,88.1,146.7,88.2,147.2,88.2z"
		/>
	<path fill="#FFFFFF" d="M164.3,80.1h-3.7v10.2H158V80.1h-3.7v-2.3h10V80.1z"/>
	<path fill="#FFFFFF" d="M183.9,90.3h-2.8l-1-3h-4.5l-1,3H172l4.4-12.5h2.9L183.9,90.3z M179.5,85.1l-1.6-5.1l-1.6,5.1H179.5z"/>
	<path fill="#FFFFFF" d="M207.8,77.8l-3.1,12.5h-2.9l-2.2-9.7l-2.2,9.7h-2.9l-3.1-12.5h2.6l1.9,9.8l2.3-9.8h2.6l2.3,9.8l2.1-9.8
		H207.8z"/>
	<path fill="#FFFFFF" d="M219.6,90.3h-2.6v-5.4h-5v5.4h-2.7V77.8h2.7v4.8h5v-4.8h2.6V90.3z"/>
	<path fill="#FFFFFF" d="M227.6,77.6c0.9,0,1.7,0.2,2.5,0.5s1.4,0.7,1.9,1.3s0.9,1.3,1.2,2s0.4,1.7,0.4,2.6c0,1-0.1,1.8-0.4,2.6
		c-0.3,0.8-0.7,1.5-1.2,2c-0.5,0.6-1.1,1-1.9,1.3s-1.6,0.5-2.5,0.5c-0.9,0-1.8-0.2-2.5-0.5c-0.7-0.3-1.4-0.7-1.9-1.3
		c-0.5-0.6-0.9-1.2-1.2-2s-0.4-1.7-0.4-2.6c0-1,0.1-1.9,0.4-2.6c0.3-0.8,0.7-1.5,1.2-2s1.2-1,1.9-1.3S226.7,77.6,227.6,77.6z
		 M227.6,88.2c0.5,0,1-0.1,1.4-0.3c0.4-0.2,0.7-0.5,1-0.9c0.3-0.4,0.5-0.8,0.6-1.3c0.1-0.5,0.2-1.1,0.2-1.7c0-0.6-0.1-1.1-0.2-1.7
		s-0.3-1-0.6-1.3c-0.3-0.4-0.6-0.7-1-0.9c-0.4-0.2-0.9-0.3-1.4-0.3s-1,0.1-1.4,0.3s-0.8,0.5-1,0.9c-0.3,0.4-0.5,0.8-0.6,1.3
		c-0.1,0.5-0.2,1.1-0.2,1.7c0,0.6,0.1,1.2,0.2,1.7c0.1,0.5,0.4,1,0.6,1.3c0.3,0.4,0.6,0.7,1,0.9C226.7,88.1,227.1,88.2,227.6,88.2z"
		/>
	<path fill="#FFFFFF" d="M243.9,90.3h-8.2V77.8h2.7V88h5.6V90.3z"/>
	<path fill="#FFFFFF" d="M255.4,90.3h-9.6V77.8h9.3V80h-6.7v2.8h6.2V85h-6.2v3h7V90.3z"/>
	<path fill="#FFFFFF" d="M83.6,122.3h-8.2v-12.5H78V120h5.6V122.3z"/>
	<path fill="#FFFFFF" d="M90.9,109.6c0.9,0,1.7,0.2,2.5,0.5s1.4,0.7,1.9,1.3c0.5,0.6,0.9,1.3,1.2,2c0.3,0.8,0.4,1.7,0.4,2.6
		c0,1-0.1,1.8-0.4,2.6c-0.3,0.8-0.7,1.5-1.2,2c-0.5,0.6-1.1,1-1.9,1.3c-0.7,0.3-1.6,0.5-2.5,0.5c-0.9,0-1.8-0.2-2.5-0.5
		c-0.7-0.3-1.4-0.7-1.9-1.3c-0.5-0.6-0.9-1.2-1.2-2s-0.4-1.7-0.4-2.6c0-1,0.1-1.9,0.4-2.6c0.3-0.8,0.7-1.5,1.2-2
		c0.5-0.6,1.2-1,1.9-1.3C89.2,109.7,90,109.6,90.9,109.6z M90.9,120.2c0.5,0,1-0.1,1.4-0.3c0.4-0.2,0.7-0.5,1-0.9
		c0.3-0.4,0.5-0.8,0.6-1.3c0.1-0.5,0.2-1.1,0.2-1.7c0-0.6-0.1-1.1-0.2-1.7c-0.1-0.5-0.3-1-0.6-1.3c-0.3-0.4-0.6-0.7-1-0.9
		c-0.4-0.2-0.9-0.3-1.4-0.3s-1,0.1-1.4,0.3c-0.4,0.2-0.8,0.5-1,0.9c-0.3,0.4-0.5,0.8-0.6,1.3c-0.1,0.5-0.2,1.1-0.2,1.7
		c0,0.6,0.1,1.2,0.2,1.7c0.1,0.5,0.4,1,0.6,1.3c0.3,0.4,0.6,0.7,1,0.9C89.9,120.1,90.4,120.2,90.9,120.2z"/>
	<path fill="#FFFFFF" d="M108.1,112.1h-3.7v10.2h-2.6v-10.2h-3.7v-2.3h10V112.1z"/>
	<path fill="#FFFFFF" d="M121.9,122.5c-1.7,0-3-0.4-4-1.1c-1-0.7-1.5-1.8-1.6-3.3h2.6c0.1,0.8,0.4,1.3,0.9,1.7
		c0.5,0.4,1.2,0.6,2.1,0.6c0.8,0,1.4-0.1,1.9-0.4c0.5-0.3,0.7-0.7,0.7-1.2c0-0.2-0.1-0.4-0.2-0.6c-0.1-0.2-0.3-0.3-0.5-0.4
		c-0.2-0.1-0.5-0.2-0.9-0.3s-0.7-0.2-1.2-0.3l-0.5-0.1c-0.6-0.2-1.2-0.3-1.7-0.5c-0.5-0.2-1-0.4-1.4-0.6c-0.4-0.3-0.7-0.6-1-1
		c-0.2-0.4-0.4-0.9-0.4-1.6c0-0.6,0.1-1.2,0.4-1.6c0.3-0.5,0.6-0.8,1.1-1.1c0.4-0.3,1-0.5,1.6-0.7s1.2-0.2,1.9-0.2
		c0.8,0,1.4,0.1,2.1,0.3s1.1,0.4,1.6,0.8c0.4,0.3,0.8,0.7,1,1.2c0.2,0.5,0.4,1,0.4,1.6h-2.6c-0.1-0.6-0.3-1-0.7-1.3s-1-0.5-1.8-0.5
		c-0.7,0-1.3,0.1-1.7,0.4c-0.4,0.3-0.6,0.6-0.6,1.1c0,0.2,0,0.4,0.1,0.5c0.1,0.1,0.3,0.3,0.5,0.4c0.2,0.1,0.5,0.2,0.8,0.3
		c0.3,0.1,0.7,0.2,1.2,0.3c0.5,0.1,0.9,0.2,1.3,0.3c0.4,0.1,0.8,0.2,1.2,0.3c0.4,0.1,0.7,0.3,1,0.5c0.3,0.2,0.6,0.4,0.8,0.7
		c0.2,0.3,0.4,0.6,0.5,0.9c0.1,0.4,0.2,0.8,0.2,1.2c0,0.6-0.1,1.2-0.4,1.7c-0.2,0.5-0.6,0.9-1,1.2c-0.4,0.3-1,0.6-1.6,0.7
		S122.7,122.5,121.9,122.5z"/>
	<path fill="#FFFFFF" d="M131.9,122.3h-2.6v-12.5h2.6V122.3z"/>
	<path fill="#FFFFFF" d="M147.7,122.3h-2.4v-9.9l-3,9.9h-2.4l-3-9.9v9.9h-2.4v-12.5h3.8l2.8,9.4l2.8-9.4h3.8V122.3z"/>
	<path fill="#FFFFFF" d="M150.3,109.8h4.8c0.5,0,1,0,1.4,0.1c0.4,0,0.8,0.1,1.2,0.2c0.4,0.1,0.7,0.3,1,0.5s0.5,0.5,0.8,0.8
		c0.2,0.3,0.4,0.7,0.4,1c0.1,0.4,0.1,0.8,0.1,1.2c0,1.4-0.4,2.4-1.3,3.1c-0.9,0.7-2.1,1-3.8,1h-1.9v4.6h-2.7V109.8z M152.9,115.6
		h1.6c0.3,0,0.7,0,1,0c0.3,0,0.6-0.1,0.9-0.2c0.3-0.1,0.5-0.3,0.6-0.6c0.1-0.3,0.2-0.6,0.2-1c0-0.4-0.1-0.8-0.2-1
		c-0.1-0.2-0.3-0.4-0.6-0.5c-0.2-0.1-0.5-0.2-0.9-0.2c-0.3,0-0.7,0-1.1,0h-1.6V115.6z"/>
	<path fill="#FFFFFF" d="M170.2,122.3h-8.2v-12.5h2.7V120h5.6V122.3z"/>
	<path fill="#FFFFFF" d="M181.6,122.3H172v-12.5h9.3v2.2h-6.7v2.8h6.2v2.2h-6.2v3h7V122.3z"/>
	<path fill="#FFFFFF" d="M194.5,122.3h-2.9l-1.1-3.1c-0.2-0.6-0.5-1.1-0.9-1.3c-0.4-0.3-0.8-0.4-1.3-0.4h-2.1v4.8h-2.7v-12.5h5.6
		c0.5,0,0.9,0,1.3,0.1s0.8,0.1,1.1,0.2s0.6,0.2,0.9,0.4c0.3,0.2,0.5,0.4,0.7,0.7c0.2,0.3,0.4,0.6,0.5,1s0.2,0.7,0.2,1.2
		c0,0.9-0.2,1.6-0.7,2.1s-1.1,0.9-1.9,1.1c0.2,0.1,0.5,0.2,0.7,0.4s0.4,0.3,0.5,0.5c0.2,0.2,0.3,0.4,0.4,0.7
		c0.1,0.3,0.3,0.6,0.4,0.9L194.5,122.3z M186.3,115.3h2.6c0.8,0,1.4-0.1,1.7-0.4c0.3-0.3,0.5-0.7,0.5-1.4c0-1.1-0.7-1.7-2-1.7h-2.8
		V115.3z"/>
</g>
</svg>
