<?xml version="1.0" encoding="utf-8"?>
<!-- Generator: Adobe Illustrator 19.0.0, SVG Export Plug-In . SVG Version: 6.00 Build 0)  -->
<!DOCTYPE svg PUBLIC "-//W3C//DTD SVG 1.1//EN" "http://www.w3.org/Graphics/SVG/1.1/DTD/svg11.dtd">
<svg version="1.1" id="Layer_1" xmlns="http://www.w3.org/2000/svg" xmlns:xlink="http://www.w3.org/1999/xlink" x="0px" y="0px"
	 viewBox="-144 320.5 268 66.5" style="enable-background:new -144 320.5 268 66.5;" xml:space="preserve">
<style type="text/css">
	.st0{fill:none;stroke:#E3612C;stroke-width:3;stroke-miterlimit:10;}
	.st1{fill:none;stroke:#E3612C;stroke-width:3;stroke-miterlimit:10;stroke-dasharray:8.8665,5.911,11.822,5.911;}
	.st2{fill:none;stroke:#E3612C;stroke-width:3;stroke-miterlimit:10;stroke-dasharray:11.822,5.911,8.8665,5.911,11.822,5.911;}
	.st3{fill:url(#SVGID_1_);}
	.st4{fill:#B7E4F4;stroke:#B7E4F4;stroke-width:2;stroke-miterlimit:10;}
	
		.st5{fill:none;stroke:#E3612C;stroke-width:2;stroke-miterlimit:10;stroke-dasharray:12.8588,6.4294,9.6441,6.4294,12.8588,6.4294;}
	.st6{fill:none;stroke:#E3612C;stroke-width:2;stroke-miterlimit:10;}
	.st7{fill:#FFFFFF;}
	.st8{font-family:'Futura-Medium';}
	.st9{font-size:16px;}
</style>
<g>
	<g>
		<line class="st0" x1="-119.9" y1="357.8" x2="-119.9" y2="359.2"/>
		<line class="st1" x1="-119.9" y1="360.5" x2="-119.9" y2="367.3"/>
		<path class="st2" d="M-119.9,368v9.4c0,0-0.4,8.1,18.7,8.1h217.7"/>
		<line class="st0" x1="119" y1="385.5" x2="124" y2="385.5"/>
	</g>
</g>
<linearGradient id="SVGID_1_" gradientUnits="userSpaceOnUse" x1="-749.1962" y1="-446.6004" x2="-510.4517" y2="-446.6004" gradientTransform="matrix(1 0 0 -1 634.4517 -97.5337)">
	<stop  offset="0" style="stop-color:#30C3E5"/>
	<stop  offset="1" style="stop-color:#19447A"/>
</linearGradient>
<path class="st3" d="M109,369H-99.7c-8.3,0-15.1-5.9-15.1-13.3v-13.2c0-7.3,6.7-13.3,15-13.3h208.7c8.3,0,15.1,5.9,15.1,13.3v13.3
	C124,363.1,117.3,369,109,369z"/>
<circle class="st4" cx="-116.9" cy="347.6" r="26.1"/>
<g>
	<circle class="st5" cx="-116.9" cy="347.6" r="26.1"/>
</g>
<g>
	<circle class="st6" cx="-115.8" cy="331" r="3.3"/>
	<path class="st6" d="M-106.6,347.5l-2.9-2.5c0-0.1,0-0.1-0.1-0.2l-4.4-6.8c-0.2-0.3-0.4-0.5-0.7-0.6c-0.7-0.5-1.4-0.9-2.3-0.9
		c-0.7,0-1.4,0.2-2,0.7c-0.2,0.1-0.3,0.1-0.5,0.3l-6.2,5.2l0,0c-0.5,0.2-0.9,0.7-1,1.3l-0.7,5.5c-0.1,0.9,0.5,1.7,1.4,1.8
		c0.9,0.1,1.7-0.5,1.8-1.4l0.6-4.8l2-1.6l-0.6,5.7c-0.1,0.2-0.1,0.3-0.2,0.5l-0.8,7.7l-4.3,7.1c-0.5,0.8-0.2,1.9,0.6,2.4l0.7,0.4
		c0.8,0.5,1.9,0.2,2.4-0.6l4.5-7.3c0.1-0.2,0.2-0.4,0.2-0.6c0.1-0.2,0.2-0.5,0.3-0.7l0.4-4.2l4.5,5.2l0.6,6.9c0.1,1,1,1.8,2.1,1.7
		h0.4c1-0.1,1.8-1,1.7-2.1l-0.7-7.5c0-0.1,0-0.2,0-0.2c0-0.3-0.2-0.6-0.4-0.9l-5.1-5.8l0.8-7.9l2.2,3.4c0.1,0.1,0.1,0.2,0.2,0.3
		c0.1,0.2,0.2,0.4,0.4,0.5l3,2.6c0.7,0.6,1.7,0.5,2.3-0.2C-105.9,349.1-106,348-106.6,347.5z"/>
</g>
<text transform="matrix(1 0 0 1 -73.8333 354.7999)" class="st7 st8 st9">What is FindMyRidePA?</text>
</svg>
