<?xml version="1.0" encoding="utf-8"?>
<!-- Generator: Adobe Illustrator 19.0.0, SVG Export Plug-In . SVG Version: 6.00 Build 0)  -->
<!DOCTYPE svg PUBLIC "-//W3C//DTD SVG 1.1//EN" "http://www.w3.org/Graphics/SVG/1.1/DTD/svg11.dtd">
<svg version="1.1" id="Layer_1" xmlns="http://www.w3.org/2000/svg" xmlns:xlink="http://www.w3.org/1999/xlink" x="0px" y="0px"
	 viewBox="-134.7 253.4 292.2 292.2" style="enable-background:new -134.7 253.4 292.2 292.2;" xml:space="preserve">
<style type="text/css">
	.st0{fill:#B7E4F4;stroke:#B7E4F4;stroke-width:4;stroke-miterlimit:10;}
	.st1{fill:none;stroke:#30C3E5;stroke-width:3;stroke-miterlimit:10;}
	.st2{fill:#30C3E5;}
	
		.st3{fill:none;stroke:#30C3E5;stroke-width:4;stroke-miterlimit:10;stroke-dasharray:11.8329,5.9165,8.8747,5.9165,11.8329,5.9165;}
</style>
<g>
	<circle class="st0" cx="11.4" cy="399.5" r="144.1"/>
	<g>
		<path class="st1" d="M111,416.4l-11.7-92.1c0,0-5.6-21-21-21H11.4h-66.8c-15.4,0-21,21-21,21l-11.7,92.1l4.7,34.1l-4.7,4.7v18.7
			h16.6v21.7h34.8v-21.7h48.2h48.1v21.7h34.8v-21.7H111v-18.7l-4.7-4.7L111,416.4z"/>
		<rect x="-37.5" y="321.7" class="st1" width="97.9" height="14.1"/>
		<path class="st1" d="M-46.9,424.1c-3.2,0-6,1.7-7.5,4.3c-1.6-2.2-4.2-3.7-7.1-3.7c-4.8,0-8.7,3.9-8.7,8.7s3.9,8.7,8.7,8.7
			c3.2,0,6-1.7,7.5-4.3c1.6,2.2,4.2,3.7,7.1,3.7c4.8,0,8.7-3.9,8.7-8.7C-38.2,428-42.1,424.1-46.9,424.1z"/>
		<path class="st1" d="M84.9,424.1c-3.1,0-5.8,1.6-7.3,4c-1.6-2.4-4.2-4-7.3-4c-4.8,0-8.7,3.9-8.7,8.7s3.9,8.7,8.7,8.7
			c3.1,0,5.8-1.6,7.3-4c1.6,2.4,4.2,4,7.3,4c4.8,0,8.7-3.9,8.7-8.7C93.6,428,89.7,424.1,84.9,424.1z"/>
		<g>
			<polygon class="st1" points="-65.4,400.3 3.5,400.3 3.5,352.6 -59.9,356.5 			"/>
			<polygon class="st1" points="88.2,400.3 19.4,400.3 19.4,352.6 82.8,356.5 			"/>
		</g>
		<rect x="-62.3" y="452.7" class="st2" width="141.6" height="6.1"/>
	</g>
	<g>
		<circle class="st3" cx="11.4" cy="399.5" r="144.1"/>
	</g>
</g>
</svg>
