<?xml version="1.0" encoding="utf-8"?>
<!-- Generator: Adobe Illustrator 19.0.0, SVG Export Plug-In . SVG Version: 6.00 Build 0)  -->
<!DOCTYPE svg PUBLIC "-//W3C//DTD SVG 1.1//EN" "http://www.w3.org/Graphics/SVG/1.1/DTD/svg11.dtd">
<svg version="1.1" id="Layer_1" xmlns="http://www.w3.org/2000/svg" xmlns:xlink="http://www.w3.org/1999/xlink" x="0px" y="0px"
	 viewBox="-81.9 330.5 145.8 145.8" style="enable-background:new -81.9 330.5 145.8 145.8;" xml:space="preserve">
<style type="text/css">
	.st0{fill:#B7E4F4;stroke:#B7E4F4;stroke-width:4;stroke-miterlimit:10;}
	
		.st1{fill:none;stroke:#9F3092;stroke-width:4;stroke-miterlimit:10;stroke-dasharray:11.6527,5.8263,8.7395,5.8263,11.6527,5.8263;}
	.st2{fill:none;stroke:#9F3092;stroke-width:3;stroke-miterlimit:10;}
</style>
<g>
	<circle class="st0" cx="-9" cy="403.4" r="70.9"/>
	<g>
		<circle class="st1" cx="-9" cy="403.4" r="70.9"/>
	</g>
	<g>
		<path class="st2" d="M-7.5,395.3c20.9-0.3,31.5-3.9,31.5-3.9l-7.7-21.3c-4-4-20.2-3.9-25.3-3.8c-5-0.1-21.2-0.1-25.3,3.8
			l-7.7,21.3c0,0,10.6,3.6,31.5,3.9l0,0c0.5,0,1,0,1.5,0S-8,395.3-7.5,395.3L-7.5,395.3z"/>
		<g>
			<path class="st2" d="M-47.2,408.2v5.3c0,1.5,1.2,2.7,2.7,2.7h16.8c1.5,0,2.7-1.2,2.7-2.7l0,0c0-1.2-0.8-2.2-1.9-2.6l-16.8-5.3
				C-45.4,405-47.2,406.3-47.2,408.2z"/>
			<path class="st2" d="M29.2,408.2v5.3c0,1.5-1.2,2.7-2.7,2.7H9.7c-1.5,0-2.7-1.2-2.7-2.7l0,0c0-1.2,0.8-2.2,1.9-2.6l16.8-5.3
				C27.4,405,29.2,406.3,29.2,408.2z"/>
		</g>
		<path class="st2" d="M42.9,391.9c-0.1-0.2-0.3-0.4-0.5-0.5c-0.7-0.5-2.3-1.5-3.5-1.5h-3.7c-4.4-11.6-10.6-25.6-10.6-25.6
			c-5.6-7.7-28.8-7.7-33.7-7.7c-4.9-0.1-28.1-0.1-33.7,7.7c0,0-6.2,14.1-10.6,25.6h-3.7c-1.2,0-2.8,1.1-3.5,1.5
			c-0.2,0.1-0.4,0.3-0.5,0.5c-0.6,0.9-2.5,3.9-2.5,5.7c0,1.4,0.8,2.3,1.5,2.8c0.3,0.3,0.8,0.4,1.2,0.4h3.6c-0.4,1.4-0.6,2.5-0.6,3.2
			v29c0.2,0,2.4,0,5.7,0v10.2h15.4V433c10.7,0,22.4,0,26.8,0c1.1,0,1.8,0,1.8,0c4.4,0,16.1,0,26.8,0v10.2H34V433c3.3,0,5.4,0,5.7,0
			v-29c0-0.6-0.2-1.7-0.6-3.2h3.6c0.4,0,0.9-0.1,1.2-0.4c0.6-0.5,1.5-1.4,1.5-2.8C45.4,395.8,43.5,392.8,42.9,391.9z"/>
	</g>
</g>
</svg>
