<?xml version="1.0" encoding="utf-8"?>
<!-- Generator: Adobe Illustrator 19.0.0, SVG Export Plug-In . SVG Version: 6.00 Build 0)  -->
<!DOCTYPE svg PUBLIC "-//W3C//DTD SVG 1.1//EN" "http://www.w3.org/Graphics/SVG/1.1/DTD/svg11.dtd">
<svg version="1.1" id="Layer_1" xmlns="http://www.w3.org/2000/svg" xmlns:xlink="http://www.w3.org/1999/xlink" x="0px" y="0px"
	 viewBox="-44.4 369.9 54.2 54.2" style="enable-background:new -44.4 369.9 54.2 54.2;" xml:space="preserve">
<style type="text/css">
	.st0{fill:#B7E4F4;stroke:#B7E4F4;stroke-width:2;stroke-miterlimit:10;}
	
		.st1{fill:none;stroke:#E3612C;stroke-width:2;stroke-miterlimit:10;stroke-dasharray:12.8588,6.4294,9.6441,6.4294,12.8588,6.4294;}
	.st2{fill:none;stroke:#E3612C;stroke-width:2;stroke-miterlimit:10;}
</style>
<circle class="st0" cx="-17.3" cy="397" r="26.1"/>
<g>
	<circle class="st1" cx="-17.3" cy="397" r="26.1"/>
</g>
<g>
	<circle class="st2" cx="-16.2" cy="380.3" r="3.3"/>
	<path class="st2" d="M-7,396.8l-2.9-2.5c0-0.1,0-0.1-0.1-0.2l-4.4-6.8c-0.2-0.3-0.4-0.5-0.7-0.6c-0.6-0.6-1.4-0.9-2.2-0.9
		c-0.7,0-1.4,0.2-2,0.7c-0.2,0.1-0.3,0.1-0.5,0.3L-26,392l0,0c-0.5,0.2-0.9,0.7-1,1.3l-0.7,5.5c-0.1,0.9,0.5,1.7,1.4,1.8
		s1.7-0.5,1.8-1.4l0.6-4.8l2-1.6l-0.6,5.7c-0.1,0.2-0.1,0.3-0.2,0.5l-0.8,7.7l-4.4,7.1c-0.5,0.8-0.2,1.9,0.6,2.4l0.7,0.4
		c0.8,0.5,1.9,0.2,2.4-0.6l4.5-7.3c0.1-0.2,0.2-0.4,0.2-0.6c0.1-0.2,0.2-0.5,0.3-0.7l0.4-4.2l4.5,5.2l0.6,6.9c0.1,1,1,1.8,2.1,1.7
		h0.4c1-0.1,1.8-1,1.7-2.1l-0.7-7.5c0-0.1,0-0.2,0-0.2c0-0.3-0.2-0.6-0.4-0.9l-5.1-5.8l0.8-7.9l2.2,3.4c0.1,0.1,0.1,0.2,0.2,0.3
		c0.1,0.2,0.2,0.4,0.4,0.5l3,2.6c0.7,0.6,1.7,0.5,2.3-0.2C-6.3,398.4-6.4,397.4-7,396.8z"/>
</g>
</svg>
